<?xml version="1.0" encoding="utf-8"?>
<!-- Generator: Adobe Illustrator 27.5.0, SVG Export Plug-In . SVG Version: 6.00 Build 0)  -->
<svg version="1.1" id="Capa_1" xmlns="http://www.w3.org/2000/svg" xmlns:xlink="http://www.w3.org/1999/xlink" x="0px" y="0px"
	 viewBox="0 0 2122 2122" style="enable-background:new 0 0 2122 2122;" xml:space="preserve">
<g>
	<path style="fill:#545C7B;" d="M1728.837,1052.955c0-72.739-59.174-131.913-131.912-131.913c-28.877,0-55.598,9.352-77.346,25.15
		c-32.246-46.615,10.703-92.124-38.08-130.896c-4.494-3.698-9.972-7.308-16.388-10.815c-0.035-0.02-0.066-0.04-0.102-0.06h-0.01
		c-18.297-9.981-44.104-19.128-75.911-27.104c0-7.537,0-13.769,0-13.769c0-2.241-0.638-4.426-1.747-6.55
		c7.066-85.581,49.186-346.018,299.962-524.615c-620.108,95.644-877.217,434.262-937.776,528.583
		c-28.055,6.708-49.829,17.376-59.034,28.703c-17.779,6.257-32.332,12.996-43.14,20.11h-0.002c-0.007,0.004-0.012,0.009-0.02,0.014
		c-3.723,2.452-6.994,4.949-9.807,7.486c-60.258,49.293-2.148,80.291-35.782,128.914c-21.748-15.799-48.468-25.151-77.346-25.151
		c-72.738,0-131.912,59.174-131.912,131.913c0,67.432,50.868,123.172,116.241,130.95c-3.661,25.803-5.647,52.147-5.647,78.964
		c0,4.757,0.061,9.499,0.18,14.228c0.039,1.578,0.122,3.145,0.176,4.72c0.105,3.14,0.2,6.282,0.357,9.409
		c0.096,1.925,0.24,3.837,0.357,5.757c0.167,2.762,0.317,5.529,0.524,8.28c0.156,2.069,0.358,4.124,0.537,6.185
		c0.223,2.587,0.43,5.179,0.688,7.755c0.215,2.137,0.475,4.259,0.714,6.389c0.278,2.485,0.541,4.975,0.851,7.45
		c0.275,2.194,0.596,4.373,0.897,6.558c0.329,2.389,0.643,4.782,1.003,7.161c0.341,2.261,0.724,4.509,1.094,6.762
		c0.372,2.278,0.731,4.561,1.131,6.829c0.409,2.32,0.86,4.624,1.297,6.934c0.415,2.187,0.817,4.378,1.257,6.556
		c0.476,2.357,0.992,4.699,1.497,7.045c0.453,2.105,0.896,4.214,1.374,6.31c0.544,2.394,1.128,4.773,1.703,7.154
		c0.492,2.03,0.972,4.064,1.486,6.085c0.617,2.428,1.268,4.843,1.916,7.258c0.522,1.945,1.035,3.894,1.577,5.83
		c0.693,2.473,1.42,4.932,2.146,7.391c0.548,1.856,1.088,3.715,1.654,5.563c0.774,2.521,1.578,5.028,2.388,7.534
		c0.565,1.756,1.125,3.514,1.707,5.262c0.858,2.571,1.746,5.127,2.638,7.681c0.582,1.66,1.158,3.323,1.753,4.976
		c0.944,2.616,1.917,5.218,2.898,7.816c0.591,1.563,1.176,3.128,1.781,4.685c1.035,2.669,2.1,5.323,3.176,7.972
		c0.591,1.455,1.179,2.911,1.782,4.361c1.131,2.723,2.292,5.428,3.465,8.129c0.586,1.349,1.171,2.698,1.768,4.041
		c1.237,2.787,2.503,5.559,3.786,8.321c0.566,1.221,1.133,2.444,1.709,3.66c1.349,2.854,2.726,5.693,4.123,8.52
		c0.543,1.1,1.087,2.198,1.637,3.294c1.47,2.928,2.969,5.84,4.489,8.739c0.503,0.96,1.009,1.919,1.518,2.876
		c1.599,3.005,3.225,5.993,4.877,8.966c0.459,0.826,0.92,1.65,1.382,2.474c1.735,3.084,3.497,6.149,5.288,9.195
		c0.402,0.682,0.805,1.365,1.209,2.046c1.88,3.167,3.789,6.315,5.729,9.441c0.33,0.532,0.662,1.062,0.994,1.593
		c2.041,3.262,4.111,6.502,6.216,9.719c0.24,0.366,0.481,0.731,0.722,1.095c2.218,3.373,4.47,6.721,6.759,10.042
		c0.122,0.177,0.245,0.353,0.368,0.529c26.028,37.668,56.565,71.973,90.844,102.137c38.016,152.007-66.006,160.674-45.102,196.648
		c20.984,36.112,167.831-24.02,183.114-107.356c70.164,31.839,148.086,49.576,230.153,49.576c83.796,0,163.256-18.52,234.562-51.634
		c13.212,84.4,162.297,145.822,183.453,109.414c21.151-36.4-85.563-44.877-43.656-202.145
		c112.536-102.016,183.223-249.359,183.223-413.217c0-26.817-1.985-53.161-5.647-78.964
		C1677.969,1176.127,1728.837,1120.387,1728.837,1052.955z M454.596,1052.955c0-38.487,31.313-69.8,69.799-69.8
		c17.026,0,32.633,6.145,44.762,16.311c-3.122,5.81-6.157,11.675-9.077,17.606c-16.447,33.409-29.554,68.74-39.093,105.51
		C484.088,1120.786,454.596,1090.291,454.596,1052.955z M1600.334,1122.581c-11.232-43.298-27.463-84.58-48.172-123.117
		c12.129-10.165,27.735-16.309,44.763-16.309c38.487,0,69.798,31.313,69.798,69.8
		C1666.723,1090.291,1637.233,1120.786,1600.334,1122.581z"/>
	<path style="fill:#484C69;" d="M843.285,1084.918c6.461-25.779-97.337-69.027-101.962-96.057
		c-23.827-4.388-47.44-9.589-70.425-16.247c-1.245-0.36-0.734-1.971,0.488-1.829c24.032,2.792,47.948,6.308,71.973,9.086
		c7.614-16.163,22.166-21.189,37.663-25.273c-15.245-2.222-30.419-4.942-45.42-8.39c-25.043-5.756-47.61-14.446-69.855-27.264
		l0.207-0.492c47.732,12.477,95.932,21.751,144.94,26.467c6.426-3.279,12.236-7.745,16.873-14.344
		c-89.754-5.73-157.246-19.102-186.505-50.28c-0.001,0-0.001,0-0.001,0c-4.848-4.663-8.074-9.521-10.097-14.408
		c-3.866-7.798-5.91-16.463-5.91-26.124c0-7.742,4.266-15.266,12.255-22.471c-7.528,6.16-13.209,12.035-17.451,17.694
		c-0.155,0.207-0.275,0.408-0.426,0.614c-0.883,1.205-1.735,2.405-2.492,3.592c-0.102,0.16-0.178,0.316-0.278,0.475
		c-2.504,3.999-4.343,7.9-5.625,11.721c-0.054,0.163-0.088,0.323-0.142,0.486c-0.802,2.482-1.402,4.936-1.8,7.362
		c-0.01,0.058-0.012,0.114-0.022,0.172c-4.559,28.366,15.542,53.43-7.533,86.787c-21.748-15.799-48.468-25.151-77.346-25.151
		c-72.738,0-131.912,59.174-131.912,131.913c0,67.432,50.868,123.172,116.241,130.95c-3.661,25.803-5.647,52.147-5.647,78.964
		c0,4.757,0.061,9.499,0.18,14.228c0.039,1.578,0.122,3.145,0.176,4.72c0.105,3.14,0.2,6.282,0.357,9.409
		c0.096,1.925,0.241,3.837,0.357,5.757c0.167,2.762,0.317,5.529,0.524,8.28c0.156,2.069,0.358,4.124,0.537,6.185
		c0.223,2.587,0.43,5.179,0.688,7.755c0.215,2.137,0.475,4.259,0.714,6.389c0.278,2.485,0.541,4.975,0.851,7.45
		c0.275,2.194,0.596,4.373,0.897,6.558c0.329,2.389,0.643,4.782,1.003,7.161c0.341,2.261,0.724,4.509,1.094,6.762
		c0.372,2.278,0.731,4.561,1.131,6.829c0.409,2.319,0.86,4.625,1.297,6.934c0.415,2.187,0.817,4.378,1.257,6.556
		c0.476,2.357,0.992,4.699,1.497,7.045c0.453,2.105,0.896,4.214,1.374,6.31c0.544,2.393,1.128,4.773,1.703,7.154
		c0.492,2.03,0.972,4.064,1.486,6.085c0.617,2.428,1.268,4.843,1.916,7.258c0.522,1.945,1.035,3.894,1.577,5.83
		c0.693,2.473,1.42,4.932,2.146,7.391c0.548,1.856,1.088,3.715,1.654,5.563c0.774,2.521,1.578,5.028,2.388,7.534
		c0.565,1.756,1.125,3.514,1.707,5.262c0.858,2.571,1.746,5.127,2.638,7.681c0.582,1.66,1.158,3.323,1.753,4.976
		c0.944,2.616,1.916,5.218,2.898,7.816c0.591,1.563,1.176,3.128,1.781,4.685c1.035,2.669,2.1,5.323,3.176,7.972
		c0.591,1.455,1.179,2.911,1.782,4.361c1.131,2.722,2.291,5.429,3.465,8.129c0.586,1.349,1.171,2.698,1.768,4.041
		c1.237,2.787,2.503,5.559,3.786,8.321c0.566,1.221,1.133,2.444,1.709,3.66c1.349,2.854,2.726,5.693,4.123,8.52
		c0.543,1.1,1.087,2.198,1.637,3.294c1.47,2.928,2.967,5.841,4.489,8.739c0.503,0.96,1.009,1.919,1.518,2.876
		c1.599,3.005,3.224,5.994,4.877,8.966c0.459,0.826,0.92,1.65,1.382,2.474c1.735,3.083,3.496,6.149,5.288,9.195
		c0.402,0.682,0.805,1.365,1.209,2.046c1.88,3.167,3.788,6.315,5.729,9.441c0.33,0.532,0.662,1.062,0.994,1.593
		c2.042,3.262,4.11,6.503,6.216,9.719c0.24,0.366,0.481,0.731,0.722,1.095c2.219,3.372,4.469,6.721,6.759,10.042
		c0.122,0.177,0.245,0.353,0.368,0.529c26.014,37.627,56.559,71.873,90.81,102.008c0.011,0.042,0.024,0.086,0.034,0.129
		c38.016,152.007-66.006,160.674-45.102,196.648c20.984,36.112,167.831-24.02,183.114-107.356c0.007-0.04,0.012-0.08,0.019-0.12
		c63.978,29.019,134.401,46.322,208.538,49.15C834.81,1649.932,777.313,1348.153,843.285,1084.918z M560.08,1017.072
		c-16.447,33.409-29.554,68.74-39.093,105.51c-36.899-1.795-66.391-32.291-66.391-69.626c0-38.487,31.313-69.8,69.799-69.8
		c17.026,0,32.633,6.145,44.762,16.311C566.034,1005.276,562.999,1011.141,560.08,1017.072z"/>
	<path style="fill:#E7205E;" d="M749.526,760.966c8.722-2.085,18.03-3.795,27.754-5.015c0.614-0.077,1.212-0.123,1.823-0.195
		c0.039-0.162,0.063-0.261,0.063-0.261c2.833-11.773,21.791-18.19,48.291-18.292c0.286-1.192,0.576-2.392,0.865-3.596
		c0.211-0.874,0.42-1.747,0.629-2.613c0.833-3.463,1.639-6.816,2.329-9.681c0.345-1.432,0.659-2.742,0.934-3.884
		c0.686-2.853,1.118-4.648,1.118-4.648c4.079-16.955,41.628-22.756,86.966-14.624c4.992,0.896,10.052,1.912,15.201,3.15
		c36.635,8.813,66.458,24.05,79.289,38.872c0.319,0.369,0.613,0.736,0.91,1.104c16.024-4.28,35.756-6.839,57.184-6.839
		c5.039,0,9.949,0.183,14.78,0.452c0.513-4.99,1.013-9.872,1.395-13.587c0.409-3.986,0.68-6.631,0.68-6.631
		c1.976-19.258,46.623-30.454,99.721-25.006c3.589,0.368,7.112,0.814,10.584,1.311c42.877,6.133,76.039,21.688,81.227,37.764
		c1.671-0.07,3.369-0.102,5.064-0.141c2.029-0.046,4.044-0.112,6.106-0.112c47.198,0,86.434,12.278,94.901,28.503
		c7.066-85.581,49.186-346.018,299.962-524.615C1067.195,328.026,810.085,666.645,749.526,760.966z"/>
	<path style="fill:#676B8F;" d="M1481.499,815.296c-4.494-3.698-9.972-7.308-16.388-10.815c-0.037-0.02-0.076-0.04-0.112-0.06
		c-18.297-9.981-44.104-19.128-75.911-27.104c0,4.703,0,9.895,0,14.426c0,1.026,0,2.015,0,2.957
		c19.395,6.411,31.641,15.618,31.641,25.885c0,0,0,20.182,0,31.866c0,3.178-1.271,6.243-3.457,9.17
		c-1.917,2.567-4.615,5.013-7.989,7.311v0.032c-0.08,0.054-0.179,0.105-0.261,0.16c-1.185,0.795-2.452,1.573-3.801,2.329
		c-0.066,0.037-0.119,0.077-0.187,0.114v-0.003c-2.374,1.32-4.996,2.571-7.829,3.755c-1.183,0.497-2.385,0.988-3.642,1.459v-0.026
		c-1.645,0.616-3.336,1.215-5.099,1.788v0.022c-0.285,0.092-0.591,0.176-0.878,0.267c-1.148,0.364-2.304,0.724-3.501,1.068
		c-0.246,0.071-0.472,0.15-0.719,0.219v-0.024c-10.593,2.992-22.933,5.191-36.393,6.379c-0.193,0.14-0.407,0.278-0.603,0.418
		c-0.759,0.546-1.509,1.093-2.311,1.635l-0.006-0.027c-1.458,0.982-2.959,1.959-4.543,2.927l0.005,0.021
		c-0.256,0.156-0.534,0.309-0.793,0.465c-1.034,0.622-2.076,1.242-3.163,1.856c-0.219,0.125-0.419,0.252-0.642,0.377l-0.006-0.024
		c-14.854,8.307-34.181,15.786-55.939,20.986c-10.794,2.579-21.285,4.353-31.23,5.446l0.007,0.028
		c-1.101,0.121-2.17,0.204-3.257,0.307c-1.169,0.111-2.35,0.238-3.499,0.329c-2.434,0.192-4.827,0.34-7.173,0.442
		c-1.067,0.046-2.094,0.056-3.141,0.083c-1.442,0.038-2.878,0.073-4.282,0.076c-1.113,0.003-2.2-0.014-3.286-0.033
		c-1.313-0.023-2.601-0.062-3.875-0.117c-1.027-0.044-2.05-0.088-3.049-0.153c-1.415-0.092-2.78-0.215-4.138-0.348
		c-0.77-0.075-1.567-0.131-2.317-0.219c-1.988-0.233-3.9-0.516-5.745-0.839c-0.694-0.122-1.342-0.271-2.014-0.406
		c-1.223-0.245-2.421-0.501-3.57-0.787c-0.697-0.174-1.369-0.359-2.038-0.548c-1.085-0.306-2.124-0.635-3.132-0.981
		c-0.58-0.199-1.168-0.393-1.722-0.606c-1.222-0.469-2.368-0.973-3.455-1.505c-0.246-0.12-0.526-0.225-0.765-0.348
		c-1.284-0.664-2.443-1.383-3.515-2.138c-0.333-0.234-0.615-0.487-0.926-0.729c-0.718-0.561-1.391-1.139-1.994-1.746
		c-0.299-0.301-0.578-0.608-0.847-0.92c-0.538-0.624-1.006-1.272-1.423-1.941c-0.189-0.301-0.398-0.592-0.561-0.902
		c-0.518-0.984-0.945-2.001-1.202-3.074c-0.385-1.611-0.793-3.317-1.211-5.066c-1.313,1.19-2.843,2.337-4.492,3.457v0.048
		c-1.262,0.852-2.62,1.681-4.063,2.49c-0.066,0.037-0.119,0.077-0.185,0.114v-0.003c-2.374,1.32-4.997,2.572-7.831,3.756
		c-1.183,0.497-2.385,0.987-3.642,1.459v-0.026c-1.645,0.616-3.336,1.215-5.099,1.788v0.022c-0.275,0.089-0.571,0.17-0.849,0.258
		c-1.164,0.37-2.336,0.734-3.549,1.083c-0.239,0.069-0.459,0.146-0.7,0.214v-0.023c-16.379,4.627-36.915,7.409-59.284,7.409
		c-11.098,0-21.715-0.712-31.641-1.961v0.029c-1.101-0.138-2.159-0.307-3.242-0.46c-1.162-0.164-2.338-0.314-3.479-0.493
		c-2.41-0.379-4.772-0.79-7.077-1.236c-1.048-0.203-2.047-0.432-3.073-0.648c-1.414-0.299-2.82-0.6-4.186-0.923
		c-1.08-0.255-2.13-0.524-3.179-0.794c-1.275-0.328-2.525-0.667-3.753-1.017c-0.988-0.281-1.971-0.562-2.926-0.857
		c-1.352-0.417-2.649-0.855-3.935-1.297c-0.735-0.253-1.501-0.493-2.213-0.755c-1.881-0.69-3.675-1.408-5.394-2.152
		c-0.643-0.278-1.233-0.572-1.852-0.857c-1.136-0.524-2.247-1.055-3.302-1.602c-0.635-0.33-1.242-0.665-1.846-1.003
		c-0.988-0.552-1.926-1.115-2.83-1.688c-0.514-0.327-1.038-0.65-1.524-0.983c-1.085-0.744-2.089-1.506-3.028-2.28
		c-0.206-0.17-0.449-0.333-0.647-0.504c-1.097-0.945-2.06-1.915-2.929-2.901c-0.265-0.302-0.48-0.611-0.723-0.917
		c-0.089-0.111-0.178-0.223-0.264-0.334c-0.285,0.085-0.549,0.18-0.839,0.262c-0.069,0.02-0.127,0.044-0.196,0.063l0.002-0.003
		c-2.629,0.731-5.486,1.336-8.534,1.826c-1.253,0.204-2.522,0.398-3.84,0.56l0.006-0.024c-1.743,0.214-3.528,0.401-5.375,0.545
		l-0.005,0.021c-0.296,0.023-0.61,0.033-0.907,0.054c-1.209,0.086-2.424,0.165-3.673,0.221c-0.253,0.012-0.487,0.035-0.741,0.044
		l0.005-0.023c-10.999,0.432-23.51-0.317-36.874-2.31c-0.069,0.029-0.152,0.052-0.222,0.081c-1.011,0.418-2.025,0.835-3.093,1.233
		v-0.106c-1.68,0.628-3.298,1.278-5.101,1.86v0.022c-0.283,0.092-0.589,0.175-0.876,0.265c-1.153,0.363-2.312,0.722-3.512,1.066
		c-0.243,0.07-0.469,0.148-0.713,0.217v-0.024c-16.386,4.602-36.927,7.353-59.297,7.318c-11.098-0.017-21.713-0.745-31.637-2.009
		v0.029c-1.099-0.14-2.156-0.31-3.235-0.464c-1.164-0.166-2.343-0.318-3.486-0.499c-2.407-0.382-4.763-0.797-7.064-1.246
		c-1.056-0.206-2.062-0.438-3.094-0.658c-1.409-0.3-2.811-0.602-4.173-0.926c-1.079-0.257-2.128-0.526-3.177-0.798
		c-1.276-0.331-2.528-0.673-3.759-1.026c-0.982-0.281-1.96-0.562-2.91-0.857c-1.358-0.421-2.663-0.863-3.955-1.311
		c-0.728-0.252-1.488-0.491-2.195-0.752c-1.878-0.691-3.67-1.413-5.386-2.159c-0.648-0.282-1.244-0.578-1.868-0.867
		c-1.13-0.524-2.237-1.054-3.285-1.6c-0.637-0.332-1.247-0.669-1.852-1.01c-0.985-0.553-1.921-1.116-2.821-1.69
		c-0.514-0.327-1.038-0.651-1.523-0.985c-1.082-0.743-2.079-1.503-3.014-2.276c-0.211-0.174-0.457-0.341-0.659-0.516
		c-1.095-0.947-2.055-1.917-2.921-2.903c-0.266-0.303-0.48-0.613-0.724-0.919c-0.533-0.67-1.03-1.343-1.454-2.028
		c-0.029-0.047-0.051-0.095-0.08-0.142c-0.22-0.361-0.417-0.724-0.606-1.09c-0.379-0.733-0.682-1.475-0.931-2.224
		c-0.112-0.334-0.247-0.667-0.334-1.004c-0.273-1.079-0.451-2.167-0.45-3.271c0.006-4.219,0.014-9.064,0.021-13.686
		c-1.413,0.026-2.791,0.02-4.18,0.019l0.004,0.029c-1.107,0-2.178-0.036-3.269-0.052c-1.175-0.017-2.364-0.02-3.519-0.056
		c-2.437-0.075-4.828-0.19-7.167-0.345c-1.081-0.072-2.113-0.176-3.17-0.264c-1.425-0.119-2.844-0.241-4.226-0.39
		c-1.111-0.12-2.191-0.255-3.271-0.394c-1.306-0.167-2.585-0.348-3.846-0.542c-1.011-0.156-2.02-0.311-3.002-0.485
		c-1.393-0.245-2.736-0.518-4.068-0.797c-0.761-0.16-1.552-0.303-2.292-0.474c-1.951-0.45-3.82-0.94-5.616-1.463
		c-0.675-0.197-1.3-0.415-1.951-0.622c-1.191-0.378-2.358-0.765-3.47-1.176c-0.672-0.249-1.319-0.506-1.961-0.767
		c-1.048-0.424-2.047-0.866-3.012-1.321c-0.552-0.261-1.115-0.517-1.639-0.788c-1.164-0.601-2.25-1.229-3.274-1.877
		c-0.23-0.146-0.495-0.28-0.718-0.429c-1.205-0.801-2.28-1.643-3.264-2.513c-0.301-0.266-0.552-0.546-0.832-0.819
		c-0.655-0.638-1.262-1.29-1.797-1.962c-0.262-0.33-0.505-0.665-0.738-1.003c-0.469-0.68-0.864-1.379-1.206-2.091
		c-0.152-0.317-0.328-0.628-0.454-0.951c-0.408-1.036-0.723-2.093-0.86-3.189c-0.865-6.899-1.942-15.476-2.755-21.963
		c-0.703-5.605-1.211-9.656-1.211-9.656c-0.544-4.338,1.225-8.76,4.746-13.091c-17.779,6.257-32.332,12.996-43.14,20.11
		c-0.001,0-0.001,0-0.001,0c-0.001,0-0.001,0.001-0.001,0.001c-0.007,0.004-0.012,0.008-0.02,0.012
		c-3.723,2.452-6.994,4.949-9.807,7.486c-0.005,0.004-0.009,0.008-0.013,0.012c-7.99,7.205-12.255,14.729-12.255,22.471
		c0,9.661,2.044,18.326,5.91,26.124c2.567,5.18,5.94,9.978,10.098,14.409c29.26,31.179,96.752,44.55,186.505,50.28
		c67.353,4.3,147.229,4.304,232.892,4.304c240.469,0,435.406,0,435.406-95.117C1496.066,831.303,1490.985,823.104,1481.499,815.296z
		"/>
	<path style="fill:#3B404C;" d="M670.898,972.614c22.985,6.657,46.598,11.858,70.425,16.247
		c31.732,5.845,63.859,10.206,95.504,14.243c54.652,6.971,110.04,9.26,165.125,10.817c55.59,1.571,111.229,1.963,166.844,1.963
		c211.654,0,280.341-48.396,303.125-63.292c0.451-0.294,0.044-0.929-0.437-0.69c-43.669,21.671-143.922,39.555-289.244,39.662
		c-54.441,0.04-108.857,1.538-163.301,1.196c-54.409-0.341-108.566-3.138-162.906-4.988c-29.851-1.016-59.689-2.851-89.431-5.494
		c-7.764-0.69-15.509-1.515-23.242-2.409c-24.026-2.777-47.942-6.294-71.973-9.086C670.164,970.643,669.653,972.254,670.898,972.614
		z"/>
	<path style="fill:#676B8F;" d="M1691.877,1062.856c-0.196,4.77,1.913,8.591,3.726,12.834c1.251,2.93,5.468,3.439,7.93,2.08
		c11.834-6.535,13.09-17.675,13.983-30.242c0.86-12.099-1.357-24.735-5.602-36.074c-8.005-21.385-22.751-39.744-40.418-54.018
		c-32.301-26.1-83.068-41.809-117.598-10.141c-1.251,1.148,0.05,3.529,1.705,2.929c36.363-13.179,75.635-3.409,103.7,22.756
		c13.12,12.232,24.88,27.329,30.425,44.591c3.125,9.726,4.116,19.771,3.876,29.958
		C1693.481,1052.719,1692.087,1057.727,1691.877,1062.856z"/>
	<path style="fill:#545C7B;" d="M436.146,1090.561c-3.866-9.973-6.334-20.617-7.046-31.29c-1.42-21.249,2.995-43.608,13.795-62.085
		c10.936-18.708,27.86-32.775,47.343-41.943c9.896-4.658,20.152-7.629,30.787-10.06c5.095-1.164,10.256-2.001,15.45-2.587
		c4.918-0.556,10.059-2.585,14.854-2.678c0.798-0.016,0.867-1.059,0.179-1.324c-5.899-2.276-9.57-5.288-16.068-6.432
		c-6.16-1.085-12.585-1.62-18.84-1.406c-12.186,0.416-24.758,3.402-36.012,8.002c-23.402,9.565-43.75,25.578-57.826,46.66
		c-14.442,21.633-20.675,48.004-18.908,73.853c1.709,24.994,10.268,56.181,29.269,73.838c9.906,9.204,26.224-2.507,19.053-14.701
		C446.672,1109.047,440.127,1100.835,436.146,1090.561z"/>
	<path style="fill:#676B8F;" d="M665.747,918.945c22.245,12.817,44.812,21.507,69.855,27.264c15.001,3.448,30.175,6.168,45.42,8.39
		c10.042,1.464,20.109,2.751,30.197,3.747c52.131,5.145,104.666,5.983,156.995,7.582c111.179,3.4,222.778,5.415,333.55-6.543
		c30.136-3.253,60.327-7.2,90.105-12.924c13.675-2.629,27.577-5.574,40.666-10.415c5.649-2.089,12.424-4.249,17.141-8.054
		c5.813-4.69,10.324-10.547,16.486-15.01c1.674-1.212,0.258-3.733-1.632-2.794c-7.176,3.562-12.728,3.518-20.351,4.535
		c-5.486,0.732-10.905,3.188-16.191,4.828c-11.967,3.713-23.983,6.945-36.267,9.442c-25.842,5.254-52.072,8.884-78.251,11.972
		c-54.07,6.378-108.535,9.541-162.95,10.936c-54.006,1.385-108.046,0.919-162.053-0.16c-51.759-1.033-103.676-1.524-155.341-4.991
		c-7.431-0.499-14.839-1.119-22.233-1.831c-49.008-4.716-97.208-13.99-144.94-26.467L665.747,918.945z"/>
	<path style="fill:#676B8F;" d="M1570.757,1182.251c-10.206-49.973-29.834-100.616-69.415-132.68
		c-10.155-8.226-21.89-14.741-34.339-19.318c-36.677-13.485-79.586-10.008-106.845,17.19
		c-29.88,29.813-32.943,77.851-23.045,118.884c9.899,41.032,30.503,78.746,42.021,119.354
		c14.823,52.265,13.996,108.862-2.346,160.671c-12.313,39.03-33.286,80.719-17.738,118.576
		c16.154,39.338,65.043,46.651,100.217,31.056c38.275-16.971,58.761-66.536,75.301-103.029
		c43.46-95.893,57.224-205.43,36.586-308.828C1571.028,1183.501,1570.883,1182.876,1570.757,1182.251z"/>
	<path style="fill:#FFD12E;" d="M1389.087,794.701c0-0.943,0-1.931,0-2.957c0-4.531,0-9.723,0-14.426c0-7.537,0-13.769,0-13.769
		c0-2.241-0.638-4.426-1.747-6.55c-8.466-16.225-47.703-28.503-94.901-28.503c-2.062,0-4.077,0.066-6.106,0.112
		c-1.696,0.038-3.394,0.071-5.064,0.141c-5.188-16.076-38.35-31.631-81.227-37.764c-3.472-0.497-6.995-0.943-10.584-1.311
		c-53.099-5.448-97.746,5.748-99.721,25.006c0,0-0.271,2.645-0.68,6.631c-0.382,3.715-0.882,8.597-1.395,13.587
		c-4.831-0.269-9.741-0.452-14.78-0.452c-21.427,0-41.16,2.56-57.184,6.839c-0.297-0.368-0.591-0.735-0.91-1.104
		c-12.831-14.822-42.654-30.058-79.289-38.872c-5.148-1.238-10.208-2.255-15.201-3.15c-45.337-8.133-82.887-2.331-86.966,14.624
		c0,0-0.433,1.796-1.118,4.648c-0.275,1.141-0.59,2.452-0.934,3.884c-0.69,2.865-1.496,6.218-2.329,9.681
		c-0.208,0.866-0.418,1.739-0.629,2.613c-0.288,1.203-0.578,2.404-0.865,3.596c-26.501,0.102-45.458,6.519-48.291,18.292
		c0,0-0.024,0.099-0.063,0.261c-0.611,0.072-1.209,0.118-1.823,0.195c-9.724,1.22-19.032,2.93-27.754,5.015
		c-28.055,6.708-49.829,17.376-59.034,28.703c-3.52,4.331-5.29,8.753-4.746,13.091c0,0,0.508,4.051,1.211,9.656
		c0.814,6.488,1.89,15.064,2.755,21.963c0.137,1.096,0.451,2.154,0.86,3.189c0.127,0.323,0.302,0.634,0.454,0.951
		c0.342,0.712,0.737,1.41,1.206,2.091c0.232,0.338,0.476,0.673,0.738,1.003c0.535,0.672,1.141,1.324,1.797,1.962
		c0.28,0.272,0.531,0.552,0.832,0.819c0.984,0.87,2.059,1.711,3.264,2.513c0.223,0.148,0.488,0.282,0.718,0.429
		c1.025,0.649,2.11,1.277,3.274,1.877c0.525,0.271,1.088,0.527,1.639,0.788c0.966,0.456,1.965,0.897,3.012,1.321
		c0.642,0.26,1.289,0.518,1.961,0.767c1.112,0.411,2.279,0.799,3.47,1.176c0.652,0.207,1.276,0.425,1.951,0.622
		c1.797,0.523,3.665,1.014,5.616,1.463c0.739,0.171,1.53,0.314,2.292,0.474c1.332,0.279,2.675,0.552,4.068,0.797
		c0.983,0.174,1.992,0.329,3.002,0.485c1.262,0.194,2.541,0.375,3.846,0.542c1.08,0.139,2.161,0.274,3.271,0.394
		c1.382,0.149,2.8,0.271,4.226,0.39c1.057,0.089,2.09,0.193,3.17,0.264c2.338,0.155,4.73,0.27,7.167,0.345
		c1.154,0.036,2.343,0.039,3.519,0.056c1.092,0.016,2.162,0.052,3.269,0.052l-0.004-0.029c1.388,0.001,2.767,0.006,4.18-0.019
		c-0.007,4.622-0.015,9.467-0.021,13.686c-0.001,1.104,0.177,2.193,0.45,3.271c0.086,0.337,0.221,0.67,0.334,1.004
		c0.25,0.749,0.553,1.491,0.931,2.224c0.189,0.365,0.386,0.728,0.606,1.09c0.029,0.047,0.051,0.095,0.08,0.142
		c0.424,0.685,0.921,1.359,1.454,2.028c0.243,0.306,0.458,0.616,0.724,0.919c0.866,0.986,1.826,1.957,2.921,2.903
		c0.202,0.175,0.448,0.342,0.659,0.516c0.935,0.773,1.933,1.533,3.014,2.276c0.485,0.334,1.008,0.658,1.523,0.985
		c0.9,0.574,1.836,1.137,2.821,1.69c0.605,0.341,1.216,0.679,1.852,1.01c1.049,0.546,2.155,1.076,3.285,1.6
		c0.625,0.289,1.22,0.585,1.868,0.867c1.716,0.746,3.508,1.468,5.386,2.159c0.706,0.261,1.466,0.5,2.195,0.752
		c1.293,0.447,2.597,0.889,3.955,1.311c0.95,0.295,1.928,0.575,2.91,0.857c1.23,0.353,2.483,0.695,3.759,1.026
		c1.049,0.272,2.097,0.541,3.177,0.798c1.362,0.324,2.764,0.626,4.173,0.926c1.032,0.219,2.038,0.452,3.094,0.658
		c2.301,0.449,4.658,0.864,7.064,1.246c1.143,0.181,2.321,0.334,3.486,0.499c1.079,0.153,2.137,0.323,3.235,0.464v-0.029
		c9.924,1.264,20.539,1.992,31.637,2.009c22.37,0.034,42.911-2.716,59.297-7.318v0.024c0.245-0.069,0.47-0.147,0.713-0.217
		c1.2-0.344,2.359-0.702,3.512-1.066c0.286-0.091,0.592-0.174,0.876-0.265v-0.022c1.803-0.583,3.421-1.232,5.101-1.86v0.106
		c1.067-0.399,2.082-0.815,3.093-1.233c0.069-0.029,0.152-0.052,0.222-0.081c13.364,1.993,25.876,2.742,36.874,2.31l-0.005,0.023
		c0.253-0.01,0.488-0.033,0.741-0.044c1.25-0.055,2.464-0.135,3.673-0.221c0.297-0.021,0.612-0.031,0.907-0.054l0.005-0.021
		c1.847-0.144,3.632-0.331,5.375-0.545l-0.006,0.024c1.318-0.163,2.587-0.356,3.84-0.56c0.077-0.013,0.16-0.022,0.237-0.034
		l0.003-0.01c2.955-0.482,5.737-1.07,8.295-1.781l-0.002,0.003c0.069-0.019,0.127-0.044,0.196-0.063
		c0.29-0.082,0.554-0.177,0.839-0.262c0.087,0.112,0.176,0.223,0.264,0.334c0.243,0.306,0.458,0.615,0.723,0.917
		c0.869,0.986,1.832,1.956,2.929,2.901c0.198,0.172,0.44,0.334,0.647,0.504c0.939,0.774,1.943,1.536,3.028,2.28
		c0.486,0.333,1.01,0.656,1.524,0.983c0.904,0.573,1.842,1.136,2.83,1.688c0.604,0.338,1.212,0.673,1.846,1.003
		c1.055,0.547,2.166,1.078,3.302,1.602c0.62,0.285,1.209,0.579,1.852,0.857c1.719,0.743,3.513,1.462,5.394,2.152
		c0.712,0.261,1.478,0.502,2.213,0.755c1.286,0.443,2.583,0.881,3.935,1.297c0.955,0.295,1.938,0.576,2.926,0.857
		c1.228,0.35,2.478,0.689,3.753,1.017c1.049,0.27,2.099,0.539,3.179,0.794c1.367,0.323,2.772,0.624,4.186,0.923
		c1.026,0.216,2.026,0.445,3.073,0.648c2.305,0.446,4.666,0.858,7.077,1.236c1.141,0.179,2.317,0.329,3.479,0.493
		c1.083,0.152,2.141,0.321,3.242,0.46v-0.029c9.926,1.249,20.543,1.961,31.641,1.961c22.369,0,42.905-2.782,59.284-7.409v0.023
		c0.241-0.068,0.462-0.145,0.7-0.214c1.213-0.349,2.385-0.713,3.549-1.083c0.277-0.088,0.574-0.17,0.849-0.258v-0.022
		c1.763-0.573,3.453-1.172,5.099-1.788v0.026c1.257-0.472,2.459-0.962,3.642-1.459c0.06-0.025,0.123-0.048,0.183-0.073v-0.008
		c2.761-1.161,5.326-2.385,7.648-3.675v0.003c0.066-0.037,0.119-0.077,0.185-0.114c1.443-0.808,2.802-1.638,4.063-2.49v-0.048
		c1.649-1.121,3.179-2.267,4.492-3.457c0.418,1.749,0.826,3.455,1.211,5.066c0.257,1.074,0.684,2.09,1.202,3.074
		c0.163,0.31,0.373,0.601,0.561,0.902c0.417,0.668,0.885,1.317,1.423,1.941c0.269,0.312,0.548,0.619,0.847,0.92
		c0.603,0.607,1.275,1.185,1.994,1.746c0.311,0.242,0.593,0.496,0.926,0.729c1.072,0.756,2.231,1.474,3.515,2.138
		c0.239,0.123,0.519,0.228,0.765,0.348c1.088,0.532,2.234,1.037,3.455,1.505c0.554,0.212,1.142,0.407,1.722,0.606
		c1.007,0.346,2.047,0.675,3.132,0.981c0.669,0.189,1.341,0.375,2.038,0.548c1.149,0.286,2.347,0.543,3.57,0.787
		c0.672,0.135,1.32,0.284,2.014,0.406c1.845,0.323,3.757,0.606,5.745,0.839c0.75,0.088,1.547,0.144,2.317,0.219
		c1.358,0.132,2.723,0.256,4.138,0.348c0.999,0.065,2.022,0.109,3.049,0.153c1.273,0.055,2.562,0.094,3.875,0.117
		c1.087,0.019,2.173,0.036,3.286,0.033c1.403-0.003,2.839-0.037,4.282-0.076c1.047-0.028,2.074-0.037,3.141-0.083
		c2.346-0.102,4.74-0.25,7.173-0.442c1.149-0.091,2.33-0.218,3.499-0.329c1.087-0.103,2.156-0.186,3.257-0.307l-0.007-0.028
		c9.946-1.093,20.436-2.867,31.23-5.446c21.758-5.2,41.085-12.679,55.939-20.986l0.006,0.024c0.223-0.124,0.423-0.252,0.642-0.377
		c1.087-0.614,2.129-1.234,3.163-1.856c0.259-0.156,0.537-0.309,0.793-0.465l-0.005-0.021c1.583-0.968,3.085-1.945,4.543-2.927
		l0.006,0.027c0.802-0.542,1.552-1.089,2.311-1.635c0.196-0.14,0.411-0.278,0.603-0.418c13.46-1.188,25.8-3.387,36.393-6.379v0.024
		c0.247-0.069,0.474-0.148,0.719-0.219c1.196-0.344,2.352-0.704,3.501-1.068c0.287-0.091,0.593-0.175,0.878-0.267v-0.022
		c1.763-0.573,3.453-1.173,5.099-1.788v0.026c1.257-0.471,2.459-0.962,3.642-1.459c0.06-0.024,0.123-0.048,0.182-0.072v-0.008
		c2.761-1.161,5.326-2.384,7.648-3.674v0.003c0.067-0.037,0.121-0.077,0.187-0.114c1.352-0.756,2.61-1.535,3.801-2.329
		c0.082-0.054,0.181-0.105,0.261-0.16v-0.032c3.374-2.297,6.072-4.744,7.989-7.311c2.186-2.928,3.457-5.992,3.457-9.17
		c0-11.684,0-31.866,0-31.866C1420.728,810.318,1408.482,801.112,1389.087,794.701z"/>
	<path style="fill:#3B404C;" d="M1420.728,820.586c0,0,0,20.182,0,31.866c0,3.178-1.271,6.243-3.457,9.17
		c15.901-9.064,24.677-20.745,24.677-35.867c0-12.42-19.319-24.042-52.861-34.012c0,1.026,0,2.015,0,2.957
		C1408.482,801.112,1420.728,810.318,1420.728,820.586z"/>
	<path style="fill:#3B404C;" d="M764.208,879.289c-0.379-0.733-0.682-1.475-0.931-2.224c-0.112-0.334-0.247-0.667-0.334-1.004
		c-0.273-1.079-0.451-2.167-0.45-3.271c0.006-4.219,0.014-9.064,0.021-13.686c-1.413,0.026-2.791,0.02-4.18,0.019l0.004,0.029
		c-1.107,0-2.178-0.036-3.269-0.052c-1.175-0.017-2.364-0.02-3.519-0.056c-2.437-0.075-4.828-0.19-7.167-0.345
		c-1.081-0.072-2.113-0.176-3.17-0.264c-1.425-0.119-2.844-0.241-4.226-0.39c-1.111-0.12-2.191-0.255-3.271-0.394
		c-1.306-0.167-2.585-0.348-3.846-0.542c-1.011-0.156-2.02-0.311-3.002-0.485c-1.393-0.245-2.736-0.518-4.068-0.797
		c-0.761-0.16-1.552-0.303-2.292-0.474c-1.951-0.45-3.82-0.94-5.616-1.463c-0.675-0.197-1.3-0.415-1.951-0.622
		c-1.191-0.378-2.358-0.765-3.47-1.176c-0.672-0.249-1.319-0.506-1.961-0.767c-1.048-0.424-2.047-0.866-3.012-1.321
		c-0.552-0.261-1.115-0.517-1.639-0.788c-1.164-0.601-2.25-1.229-3.274-1.877c-0.23-0.146-0.495-0.28-0.718-0.429
		c-1.205-0.801-2.28-1.643-3.264-2.513c-0.301-0.266-0.552-0.546-0.832-0.819c-0.655-0.638-1.262-1.29-1.797-1.962
		c-0.262-0.33-0.505-0.665-0.738-1.003c-0.469-0.68-0.864-1.379-1.206-2.091c-0.152-0.317-0.328-0.628-0.454-0.951
		c-0.408-1.036-0.723-2.093-0.86-3.189c-0.865-6.899-1.942-15.476-2.755-21.963c-4.961,4.311-7.586,8.771-7.586,13.34
		c0,29.014,32.08,45.445,85.522,54.765c-0.029-0.047-0.051-0.095-0.08-0.142C764.594,880.017,764.397,879.654,764.208,879.289z"/>
	<path style="fill:#EC6408;" d="M920.299,698.157c4.992,0.896,10.052,1.912,15.201,3.15c36.635,8.813,66.458,24.05,79.289,38.872
		c0.319,0.369,0.613,0.736,0.91,1.104c16.024-4.28,35.756-6.839,57.184-6.839c5.039,0,9.949,0.183,14.78,0.452
		c0.513-4.99,1.013-9.872,1.395-13.587c0.409-3.986,0.68-6.631,0.68-6.631c1.976-19.258,46.623-30.454,99.721-25.006
		c3.589,0.368,7.112,0.814,10.584,1.311c42.877,6.133,76.039,21.688,81.227,37.764c1.671-0.07,3.369-0.102,5.064-0.141
		c2.029-0.046,4.044-0.112,6.106-0.112c47.198,0,86.434,12.278,94.901,28.503c7.066-85.581,49.186-346.018,299.962-524.615
		C1282.068,296.507,1027.341,561.425,920.299,698.157z"/>
	<path style="fill:#FEC700;" d="M1014.788,740.179c0.319,0.369,0.613,0.736,0.91,1.104c16.024-4.28,35.756-6.839,57.184-6.839
		c5.039,0,9.949,0.183,14.78,0.452c0.513-4.99,1.013-9.872,1.395-13.587c0.409-3.986,0.68-6.631,0.68-6.631
		c1.976-19.258,46.623-30.454,99.721-25.006c3.589,0.368,7.112,0.814,10.584,1.311c42.877,6.133,76.039,21.688,81.227,37.764
		c1.671-0.07,3.369-0.102,5.064-0.141c2.029-0.046,4.044-0.112,6.106-0.112c47.198,0,86.434,12.278,94.901,28.503
		c7.066-85.581,49.186-346.018,299.962-524.615C1388.159,280.436,1108.436,616.802,1014.788,740.179z"/>
	<path style="fill:#95C11F;" d="M1200.042,690.983c42.877,6.133,76.039,21.688,81.227,37.764c1.671-0.07,3.369-0.102,5.064-0.141
		c2.029-0.046,4.044-0.112,6.106-0.112c47.198,0,86.434,12.278,94.901,28.503c7.066-85.581,49.186-346.018,299.962-524.615
		C1439.098,346.715,1277.003,565.592,1200.042,690.983z"/>
	<path style="fill:#3A7BBF;" d="M1286.333,728.607c2.029-0.046,4.044-0.112,6.106-0.112c47.198,0,86.434,12.278,94.901,28.503
		c7.066-85.581,49.186-346.018,299.962-524.615C1454.077,383.696,1332.265,620.774,1286.333,728.607z"/>
	<path style="fill:#FCBD20;" d="M1263.276,721.081c-1.045-1.301-2.363-2.592-3.932-3.864c-1.568-1.272-3.389-2.525-5.437-3.749
		c-4.098-2.449-9.112-4.783-14.868-6.927c-3.837-1.43-8.005-2.775-12.45-4.013c-11.113-3.096-23.962-5.526-37.74-6.939
		c-33.065-3.393-62.085,0.031-75.13,7.813c-4.349,2.594-6.921,5.674-7.278,9.145c-0.078,0.762-0.007,1.527,0.13,2.293
		c0.04,0.229,0.093,0.458,0.151,0.687c0.161,0.616,0.383,1.232,0.673,1.848c0.113,0.242,0.224,0.483,0.357,0.723
		c0.279,0.505,0.579,1.01,0.939,1.514c0.011-0.01,0.027-0.019,0.038-0.03c8.262,11.576,38.283,22.541,74.961,26.304
		c36.677,3.763,68.298-0.878,78.739-10.534c0.008,0.012,0.022,0.024,0.031,0.036c0.452-0.417,0.844-0.847,1.217-1.281
		c0.184-0.215,0.347-0.434,0.512-0.654c0.406-0.541,0.746-1.096,1.027-1.663c0.105-0.214,0.204-0.429,0.29-0.647
		c0.29-0.721,0.515-1.455,0.593-2.217l0,0C1266.365,726.323,1265.366,723.683,1263.276,721.081z"/>
	<path style="fill:#FFD12E;" d="M1244.638,732.706c-1.021,5.266-16.375,3.224-16.375,3.224s1.892,6.668-15.834,4.954
		c-15.906-1.538-16.915-4.015-19.955-8.671c-0.118,2.711,2.572,5.736,4.096,7.481c0.499,0.571-12.062,4.666-12.669,4.133
		c-1.275-1.121-5.837-7.366-3.965-12.74c-4.603,3.349-10.413,5.472-23.37,4.067c-17.705-1.921-14.5-8.066-14.5-8.066
		s-14.066-3.073-15.189-6.46c-0.215-0.65,0.452-5.565,0.661-7.057c0.005-0.131,0.008-0.261,0.056-0.393
		c0.002-0.01,0.01-0.067,0.01-0.067s0.026,0.005,0.028,0.005c0.195-0.466,0.625-0.932,1.457-1.393
		c4.063-2.253,16.812-1.313,29.452,0.368c-1.062-1.035-1.341-2.638-1.286-4.195c0.075-2.18,0.753-4.211,0.753-4.211l0.008,0.001
		c-0.112-1.108,0.741-2.1,2.966-2.887c9.865-3.492,26.663,2.216,26.663,2.216s18.44-2.352,28.482,3.009
		c1.604,0.856,2.206,1.707,2.089,2.541l0.013,0c0,0-0.372,2.842-0.825,5.517c-0.266,1.57-0.558,3.087-0.825,3.924
		c12.234,0.941,24.117,2.597,27.508,5.515c0.87,0.749,1.204,1.394,1.185,1.963c0.017,0.001,0.105,0.005,0.105,0.005
		S1244.917,731.268,1244.638,732.706z"/>
	<path style="fill:#ECA100;" d="M1397.386,843.391v31.858c-0.059,0.024-0.122,0.048-0.182,0.072
		c2.833-1.184,5.456-2.436,7.829-3.755v-31.866C1402.707,840.993,1400.151,842.223,1397.386,843.391z"/>
	<path style="fill:#ECA100;" d="M1388.463,846.676v31.866c1.763-0.573,3.453-1.173,5.099-1.788v-31.838
		C1391.931,845.529,1390.214,846.108,1388.463,846.676z"/>
	<path style="fill:#ECA100;" d="M1420.728,820.586c0,5.985-4.156,11.615-11.446,16.543v31.805c3.374-2.297,6.072-4.744,7.989-7.311
		c2.186-2.928,3.457-5.992,3.457-9.17C1420.728,840.768,1420.728,820.586,1420.728,820.586z"/>
	<path style="fill:#ECA100;" d="M1363.399,852.587c-1.039-4.349-2.172-9.088-3.172-13.277c-0.492-2.058-0.948-3.961-1.346-5.629
		c10.318-1.468,8.522-6.092,8.522-6.092s15.483,0.464,15.961-4.879c0.13-1.459,0-7.256,0-7.256s-0.088,0.005-0.106,0.007
		c0.246,3.671-15.855,5.503-15.855,5.503s1.989,5.087-10.106,6.285c0.028,0.107,0.095,0.201,0.121,0.309
		c1.391,5.821-1.343,12.263-7.287,18.751l7.399,30.964c-1.022,1.113-2.142,2.227-3.347,3.34c-0.064,0.06-0.114,0.12-0.18,0.18
		l-0.001-0.003l-7.406-30.993c-1.962,1.799-4.163,3.59-6.581,5.368l7.404,30.985c-0.338,0.249-0.707,0.495-1.051,0.744
		c0.196-0.14,0.411-0.278,0.603-0.418c13.46-1.188,25.8-3.387,36.393-6.379v-31.867
		C1377.248,849.957,1370.565,851.427,1363.399,852.587z"/>
	<path style="fill:#FCBD20;" d="M1383.365,848.229v31.867v0.024c0.247-0.069,0.474-0.148,0.719-0.219
		c1.196-0.344,2.352-0.704,3.501-1.068c0.287-0.091,0.593-0.175,0.878-0.267v-0.022v-31.866
		C1386.809,847.214,1385.119,847.733,1383.365,848.229z"/>
	<path style="fill:#FCBD20;" d="M1397.386,843.391c-1.235,0.521-2.507,1.031-3.824,1.526v31.838v0.026
		c1.257-0.471,2.459-0.962,3.642-1.459c0.06-0.024,0.123-0.048,0.182-0.072V843.391z"/>
	<path style="fill:#FCBD20;" d="M1405.033,839.699v31.866v0.003c0.067-0.037,0.121-0.077,0.187-0.114
		c1.352-0.756,2.61-1.535,3.801-2.329c0.082-0.054,0.181-0.105,0.261-0.16v-0.032v-31.805
		C1407.975,838.012,1406.536,838.864,1405.033,839.699z"/>
	<path style="fill:#FCBD20;" d="M1383.259,815.462c0.018-0.001,0.106-0.007,0.106-0.007s0.13,5.797,0,7.256
		c-0.479,5.343-15.961,4.879-15.961,4.879s1.796,4.624-8.522,6.092c0.398,1.668,0.854,3.571,1.346,5.629
		c19.918-3.176,35.026-8.88,41.106-15.783c-4.118-4.631-12.313-8.724-23.29-11.872c-0.196,0.135-0.35,0.279-0.549,0.414
		c1.904,0.4,3.443,0.904,4.386,1.56C1382.822,814.285,1383.221,814.894,1383.259,815.462z"/>
	<path style="fill:#D18F00;" d="M1401.367,823.56c0.408-0.461,0.754-0.929,1.082-1.399c0.159-0.232,0.299-0.465,0.44-0.699
		c0.35-0.581,0.632-1.169,0.853-1.762c0.083-0.223,0.158-0.446,0.222-0.671c0.216-0.748,0.364-1.502,0.364-2.267
		c0-5.807-6.28-11.141-16.729-15.409c-1.725,3.658-4.963,7.124-9.555,10.302c10.977,3.148,19.172,7.241,23.29,11.872
		C1401.344,823.538,1401.357,823.549,1401.367,823.56z"/>
	<path style="fill:#ECA100;" d="M1377.641,780.092v31.836c-1.262,0.851-2.619,1.681-4.062,2.489c1.37-0.767,2.712-1.541,3.915-2.348
		c0.2-0.134,0.353-0.278,0.549-0.414c4.592-3.178,7.829-6.644,9.555-10.302c0.912-1.934,1.489-3.91,1.489-5.938
		c0-0.228,0-0.479,0-0.714c0-0.943,0-1.931,0-2.957c0-4.531,0-9.723,0-14.426c0-7.537,0-13.769,0-13.769
		C1389.087,769.533,1384.932,775.163,1377.641,780.092z"/>
	<path style="fill:#ECA100;" d="M1373.393,814.528v-31.866c-2.326,1.294-4.884,2.523-7.648,3.691v31.845
		C1368.504,817.038,1371.073,815.818,1373.393,814.528z"/>
	<path style="fill:#FCBD20;" d="M1361.922,819.743c0.205-0.077,0.393-0.161,0.597-0.239c0.057-0.021,0.11-0.045,0.167-0.066
		c1.039-0.402,2.068-0.808,3.06-1.226v-0.013v-31.845c-1.235,0.521-2.507,1.031-3.823,1.526v31.839V819.743z"/>
	<path style="fill:#FCBD20;" d="M1373.393,814.531c0.067-0.037,0.119-0.077,0.186-0.114c1.443-0.807,2.8-1.637,4.062-2.489v-31.836
		c-1.306,0.883-2.745,1.735-4.248,2.57v31.866V814.531z"/>
	<path style="fill:#FCBD20;" d="M1292.439,734.444c-3.548,0-7.019,0.098-10.445,0.238c-0.073,0.716-0.295,2.868-0.596,5.801
		c5.862,0.394,10.599,1.47,10.599,1.47s18.102-4.222,28.641,0.086c1.682,0.688,2.369,1.473,2.337,2.315
		c-0.114,3.074-10.089,6.91-18.7,9.654c1.094,0.192,2.213,0.367,3.284,0.574c4.592-0.287,9.692-0.541,14.754-0.669
		c12.266-0.312,24.256,0.122,27.926,2.679c0.941,0.656,1.341,1.265,1.38,1.833c0.192,2.875-9.627,4.623-13.91,5.244
		c3.793,1.72,7.155,3.567,10.012,5.53c2.942,2.021,5.343,4.157,7.162,6.387c6.776-2.645,11.844-5.73,14.809-9.096
		c0.01,0.011,0.024,0.022,0.034,0.033c0.407-0.46,0.754-0.929,1.082-1.399c0.16-0.232,0.3-0.465,0.44-0.699
		c0.349-0.58,0.632-1.168,0.854-1.762c0.082-0.223,0.157-0.446,0.222-0.671c0.214-0.748,0.363-1.501,0.363-2.267
		C1372.686,745.762,1336.758,734.444,1292.439,734.444z"/>
	<path style="fill:#D18F00;" d="M1291.998,741.953c0,0,18.102-4.222,28.641,0.086c1.682,0.688,2.369,1.473,2.337,2.315l0.014-0.001
		c0,0-0.079,2.865-0.257,5.572c22.725,2.926,40.255,9.026,46.96,16.565c0.01,0.011,0.024,0.022,0.034,0.033
		c0.407-0.46,0.754-0.929,1.082-1.399c0.16-0.232,0.3-0.465,0.44-0.699c0.349-0.58,0.632-1.168,0.854-1.762
		c0.082-0.223,0.157-0.446,0.222-0.671c0.214-0.748,0.363-1.501,0.363-2.267c0-13.962-35.928-25.28-80.247-25.28
		c-3.548,0-7.019,0.098-10.445,0.238c-0.073,0.716-0.295,2.868-0.596,5.801C1287.261,740.877,1291.998,741.953,1291.998,741.953z"/>
	<path style="fill:#ECA100;" d="M1351.724,765.674c0.13-1.46,0-7.256,0-7.256s-0.088,0.005-0.105,0.007
		c0.192,2.875-9.627,4.623-13.91,5.244c3.793,1.72,7.155,3.567,10.012,5.53C1349.914,768.472,1351.573,767.365,1351.724,765.674z"/>
	<path style="fill:#ECA100;" d="M1322.99,744.352l-0.014,0.001c-0.114,3.074-10.089,6.91-18.7,9.654
		c1.094,0.192,2.213,0.367,3.284,0.574c4.592-0.287,9.692-0.541,14.754-0.669c0.179-0.86,0.314-2.399,0.419-3.988
		C1322.91,747.218,1322.99,744.352,1322.99,744.352z"/>
	<path style="fill:#ECA100;" d="M1271.563,884.114c-10.794,2.579-21.285,4.354-31.23,5.447l7.405,30.994
		c9.946-1.093,20.436-2.867,31.23-5.446c21.758-5.2,41.085-12.679,55.939-20.986l-7.406-30.994
		C1312.647,871.435,1293.32,878.915,1271.563,884.114z"/>
	<path style="fill:#ECA100;" d="M1332.102,860.433l7.406,30.994c1.583-0.968,3.085-1.945,4.543-2.927l-7.399-30.963
		C1335.206,858.512,1333.671,859.474,1332.102,860.433z"/>
	<path style="fill:#FCBD20;" d="M1182.563,885.116c0,0.092,0,0.194,0,0.285c0,4.601-2.51,8.983-6.954,13.008
		c0.418,1.749,0.826,3.455,1.211,5.066c0.257,1.074,0.684,2.09,1.202,3.074c0.163,0.31,0.373,0.601,0.561,0.902
		c0.417,0.668,0.885,1.317,1.423,1.941c0.269,0.312,0.548,0.619,0.847,0.92c0.603,0.607,1.275,1.185,1.994,1.746
		c0.311,0.242,0.593,0.496,0.926,0.729c1.072,0.756,2.231,1.474,3.515,2.138c0.239,0.123,0.519,0.228,0.765,0.348
		c1.088,0.532,2.234,1.037,3.455,1.505c0.554,0.212,1.142,0.407,1.722,0.606c1.007,0.346,2.047,0.675,3.132,0.981
		c0.669,0.189,1.341,0.375,2.038,0.548c1.149,0.286,2.347,0.543,3.57,0.787c0.672,0.135,1.32,0.284,2.014,0.406
		c1.845,0.323,3.757,0.606,5.745,0.839c0.75,0.088,1.547,0.144,2.317,0.219c1.358,0.132,2.723,0.256,4.138,0.348
		c0.999,0.065,2.022,0.109,3.049,0.153c1.273,0.055,2.562,0.094,3.875,0.117c1.087,0.019,2.173,0.036,3.286,0.033
		c1.403-0.003,2.839-0.037,4.282-0.076c1.047-0.028,2.074-0.037,3.141-0.083c2.346-0.102,4.74-0.25,7.173-0.442
		c1.149-0.091,2.33-0.218,3.499-0.329c1.087-0.103,2.156-0.186,3.257-0.307l-0.007-0.028l-7.405-30.994
		C1216.064,892.226,1195.317,890.572,1182.563,885.116z"/>
	<path style="fill:#FCBD20;" d="M1327.502,863.128l7.406,30.994l0.006,0.024c0.223-0.124,0.423-0.252,0.642-0.377
		c1.087-0.614,2.129-1.234,3.163-1.856c0.259-0.156,0.537-0.309,0.793-0.465l-0.005-0.021l-7.406-30.994
		C1330.617,861.341,1329.093,862.239,1327.502,863.128z"/>
	<path style="fill:#FCBD20;" d="M1347.42,886.149l-7.404-30.985c-1.081,0.795-2.199,1.586-3.364,2.373l7.399,30.963l0.006,0.027
		c0.802-0.542,1.552-1.089,2.311-1.635C1346.713,886.645,1347.081,886.398,1347.42,886.149z"/>
	<path style="fill:#FCBD20;" d="M1354.002,880.789l0.001,0.003c0.066-0.06,0.116-0.12,0.18-0.18c1.205-1.112,2.325-2.227,3.347-3.34
		l-7.399-30.964c-1.065,1.162-2.268,2.325-3.535,3.487L1354.002,880.789z"/>
	<path style="fill:#FCBD20;" d="M1331.728,809.867v31.837c-1.646,0.616-3.335,1.217-5.099,1.789v-31.866
		c-1.654,0.537-3.345,1.057-5.099,1.552v31.866c-4.381,1.238-9.026,2.356-13.963,3.309c-0.072,1.987-2.079,5.47-13.693,8.317
		c-15.52,3.805-17.292,1.8-21.699-1.59c0.784,2.597,4.324,4.563,6.339,5.707c0.659,0.374-9.843,8.39-10.592,8.087
		c-1.573-0.636-7.943-5.023-7.953-10.714c-3.236,4.682-8.018,8.606-20.712,11.561c-17.346,4.038-16.351-2.821-16.351-2.821
		s-14.29,1.748-16.47-1.078c-0.417-0.543-1.415-5.414-1.709-6.885c-0.038-0.123-0.077-0.244-0.075-0.381
		c-0.001-0.011-0.013-0.069-0.013-0.069s0.028-0.005,0.029-0.005c0.031-0.504,0.283-1.087,0.915-1.796
		c2.26-2.537,9.475-4.997,18.069-7.15c0.076,0.012,0.156,0.021,0.233,0.033c1.138,0.179,2.315,0.33,3.477,0.493
		c1.083,0.152,2.142,0.321,3.243,0.459v-0.029v-31.866c-34.552-4.346-60.202-15.574-64.372-29.182
		c4.194,0.637,8.447,1.217,12.816,1.666c3.318,0.34,6.604,0.616,9.849,0.828c9.656,0.633,18.941,0.704,27.644,0.277
		c1.428,0.214,2.378,0.322,2.378,0.322s-2.561,6.44,15.247,6.544c13.034,0.076,18.597-2.629,22.833-6.43
		c-1.314,5.537,3.862,11.284,5.245,12.268c0.658,0.469,12.735-4.887,12.181-5.404c-1.694-1.581-4.68-4.315-4.839-7.023
		c3.5,4.321,4.755,6.683,20.736,6.589c17.807-0.104,15.246-6.544,15.246-6.544s15.482,0.464,15.961-4.879
		c0.13-1.459,0-7.256,0-7.256s-0.088,0.005-0.106,0.006c0.246,3.672-15.855,5.503-15.855,5.503s2.561,6.44-15.246,6.544
		c-15.98,0.093-22.9-3.864-26.4-8.185c-3.484,5.73,3.241,12.033,4.935,13.613c0.554,0.517-5.148,2.493-5.806,2.025
		c-1.382-0.984-6.966-10.253-1.45-15.896c-4.238,3.802-14.401,8.52-27.435,8.444c-3.88-0.023-6.749-0.357-8.933-0.849
		c4.767-0.44,9.262-1.07,13.547-1.819l-0.002,0.024c0.251-0.044,0.483-0.099,0.731-0.144c1.232-0.221,2.423-0.462,3.609-0.708
		c0.291-0.061,0.601-0.113,0.891-0.175l0.003-0.021c1.813-0.39,3.555-0.814,5.255-1.258l-0.003,0.025
		c1.267-0.333,2.484-0.69,3.682-1.054c0.09-0.027,0.188-0.051,0.278-0.079l0.001-0.012c2.863-0.873,5.544-1.824,7.983-2.871v0.003
		c0.072-0.031,0.131-0.066,0.203-0.097c1.296-0.56,2.5-1.156,3.67-1.762c0.198-0.102,0.425-0.194,0.619-0.297l0.005-0.047
		c2.524-1.365,4.748-2.83,6.586-4.405c5.701-0.412,12.793-0.834,19.829-1.013c0.179-0.86,0.314-2.399,0.419-3.988
		c0.178-2.708,0.257-5.572,0.257-5.572l-0.014,0.002c-0.121,3.202-10.951,7.238-19.782,9.998c3.353-3.069,5.386-6.494,5.77-10.234
		c0.128-1.245,0.267-2.601,0.411-4.006c0.167-1.622,0.341-3.318,0.519-5.051c0.202-1.969,0.406-3.968,0.609-5.932
		c0.403-3.937,0.787-7.676,1.09-10.634c0.301-2.932,0.522-5.084,0.596-5.801c0.017-0.172,0.028-0.276,0.028-0.276
		c-0.61,5.953-5.319,11.129-13.073,15.288c-1.39,0.745-2.909,1.446-4.49,2.124c-2.446,1.049-5.116,2.012-7.984,2.891
		c-1.283,0.393-2.601,0.77-3.96,1.128c-1.686,0.443-3.454,0.844-5.252,1.23c-1.7,0.366-3.434,0.71-5.23,1.024
		c-16.765,2.932-37.479,3.604-59.732,1.321c-11.04-1.133-21.528-2.925-31.275-5.18c-37.131-8.592-62.856-24.3-61.29-39.553
		c0,0-0.271,2.645-0.68,6.631c-0.382,3.715-0.882,8.597-1.395,13.587c-0.128,1.256-0.258,2.516-0.386,3.77
		c-0.074,0.72-0.147,1.433-0.22,2.144c-0.188,1.826-0.37,3.608-0.543,5.294c-0.009,0.09-0.019,0.185-0.028,0.274
		c-0.113,1.099-0.045,2.199,0.12,3.3c0.051,0.345,0.152,0.689,0.23,1.034c0.173,0.769,0.401,1.536,0.703,2.303
		c0.151,0.384,0.313,0.765,0.494,1.148c0.369,0.773,0.812,1.541,1.305,2.308c0.213,0.331,0.396,0.663,0.632,0.993
		c0.138,0.193,0.273,0.386,0.419,0.579c0.567,0.751,1.197,1.498,1.879,2.241c0.111,0.12,0.2,0.241,0.314,0.36
		c0.184,0.195,0.412,0.385,0.604,0.58c0.853,0.863,1.769,1.719,2.768,2.566c0.452,0.383,0.943,0.759,1.423,1.138
		c0.836,0.659,1.705,1.312,2.627,1.958c0.572,0.403,1.15,0.802,1.754,1.2c0.985,0.646,2.026,1.281,3.094,1.913
		c0.594,0.352,1.159,0.708,1.778,1.055c1.632,0.914,3.341,1.812,5.139,2.688c0.687,0.335,1.43,0.655,2.139,0.984
		c1.23,0.569,2.47,1.134,3.766,1.684c0.922,0.392,1.877,0.773,2.833,1.154c-0.882-0.352-1.771-0.701-2.624-1.061
		c-1.019,0.014-1.675-0.004-1.675-0.004s2.562,6.44-15.247,6.544c-15.979,0.093-17.235-2.268-20.734-6.59
		c0.16,2.709,3.145,5.444,4.838,7.024c0.554,0.517-11.523,5.873-12.18,5.404c-1.384-0.984-6.559-6.731-5.245-12.268
		c-4.237,3.802-9.8,6.507-22.833,6.43c-17.809-0.104-15.248-6.544-15.248-6.544s-14.305-1.621-15.768-4.876
		c-0.28-0.625-0.117-5.589-0.061-7.091c-0.01-0.129-0.019-0.257,0.014-0.391c0-0.012,0.003-0.069,0.003-0.069
		s0.028,0.002,0.029,0.002c0.146-0.483,0.526-0.991,1.307-1.535c3.811-2.655,16.591-3.021,29.336-2.64
		c-1.163-0.921-1.604-2.487-1.709-4.042c-22.783,2.92-40.365,9.028-47.081,16.58c9.401,10.673,40.384,18.516,77.255,18.516
		c24.275,0,45.984-3.41,60.699-8.776c-0.809-0.247-1.556-0.521-2.348-0.776c1.017,0.326,2.009,0.663,3.051,0.977
		c2.242,0.678,4.545,1.327,6.9,1.948c1.116,0.295,2.272,0.564,3.412,0.846c1.061,0.262,2.096,0.538,3.176,0.788l0.004-0.029
		c2.54,0.588,5.133,1.135,7.776,1.654c-0.57,0.342-1.115,0.69-1.716,1.024c-2.326,1.294-4.883,2.523-7.648,3.691
		c-1.235,0.522-2.508,1.032-3.825,1.527v31.839c-1.647,0.615-3.336,1.214-5.099,1.787v-31.866c-1.654,0.537-3.345,1.057-5.099,1.552
		v31.867c-11.94,3.373-26.086,5.753-41.561,6.794c3.102,0.115,6.242,0.191,9.443,0.191c28.106,0,52.783-4.564,67.116-11.456
		c0.118-0.057,0.355-0.172,0.355-0.172s0.194,0.264,0.414,0.625c0.445,0.731,0.964,1.451,1.535,2.165
		c0.245,0.307,0.461,0.618,0.728,0.921c0.867,0.985,1.828,1.954,2.923,2.898c0.202,0.174,0.448,0.34,0.658,0.512
		c0.935,0.772,1.935,1.53,3.017,2.271c0.488,0.335,1.015,0.659,1.531,0.987c0.088,0.055,0.172,0.112,0.26,0.168
		c0.777,0.487,1.578,0.966,2.418,1.438v29.164v0.003c0.062-0.035,0.112-0.072,0.174-0.107c1.349-0.753,2.602-1.53,3.789-2.321
		c-0.204,0.137-0.385,0.279-0.596,0.415c0.028,0.484-0.002,0.977,0.11,1.448c0.178,0.745,0.498,1.443,0.881,2.121
		c0.113,0.203,0.239,0.402,0.37,0.599c0.355,0.527,0.766,1.034,1.243,1.519c0.189,0.193,0.376,0.386,0.583,0.572
		c0.429,0.383,0.876,0.759,1.381,1.114c0.007-0.013,0.018-0.027,0.026-0.041c11.622,8.195,43.581,8.624,79.441,0.054
		c30.784-7.356,55.981-19.327,66.738-30.519c-0.249,0.104-0.52,0.199-0.771,0.301c0.312-0.128,0.638-0.25,0.946-0.38
		c0.077-0.032,0.16-0.062,0.235-0.094v-0.011v-31.847C1334.316,808.863,1333.045,809.372,1331.728,809.867z M1185.25,862.891V838.55
		c0.342,0.164,0.697,0.323,1.046,0.484c0.62,0.286,1.209,0.579,1.854,0.858c1.72,0.744,3.515,1.464,5.397,2.153
		c0.704,0.258,1.462,0.496,2.188,0.746c0.319,0.11,0.638,0.219,0.961,0.328c0.989,0.331,1.976,0.662,3.003,0.979
		c0.95,0.293,0.237,0.078,0.237,0.078c-1.141,0.749-2.213,1.498-3.244,2.25C1196.679,852.385,1192.497,857.979,1185.25,862.891z"/>
	<path style="fill:#ECA100;" d="M991.6,892.988c-0.221-0.361-0.42-0.724-0.609-1.089c-0.38-0.733-0.683-1.474-0.935-2.222
		c-0.112-0.335-0.247-0.667-0.333-1.004c-0.275-1.078-0.456-2.166-0.456-3.271c0-3.787,0-8.079,0-12.262l-5.724,23.796
		c-0.077,0.013-0.16,0.021-0.237,0.034c3.048-0.49,5.905-1.095,8.534-1.826l0.301-1.251
		C991.934,893.595,991.783,893.289,991.6,892.988z"/>
	<path style="fill:#ECA100;" d="M981.55,867.069l-7.454,30.982c1.847-0.144,3.632-0.331,5.375-0.545l7.447-30.956
		C985.19,866.765,983.385,866.926,981.55,867.069z"/>
	<path style="fill:#ECA100;" d="M955.797,866.953c0.008-4.472,0.015-9.343,0.022-13.65c0.003-2.115,0.006-4.073,0.008-5.787
		c10.377,0.986,9.712-3.929,9.712-3.929s14.944,4.072,16.659-1.011c0.467-1.388,1.697-7.054,1.697-7.054s-0.087-0.015-0.104-0.018
		c-0.62,3.627-16.703,1.642-16.703,1.642s0.745,5.412-11.296,3.747c0.002,0.11,0.045,0.217,0.045,0.328
		c-0.009,5.985-4.173,11.609-11.471,16.526l-0.049,31.836c-1.258,0.846-2.611,1.67-4.049,2.473c-0.072,0.04-0.131,0.084-0.203,0.124
		v-0.003l0.049-31.866c-2.329,1.291-4.888,2.516-7.654,3.679l-0.049,31.858c-0.237,0.1-0.493,0.194-0.733,0.292
		c0.069-0.029,0.152-0.052,0.222-0.081c13.364,1.993,25.876,2.742,36.874,2.31l7.455-30.983
		C969.878,867.635,963.037,867.502,955.797,866.953z"/>
	<path style="fill:#FCBD20;" d="M976.229,867.386l-7.455,30.983l-0.005,0.023c0.253-0.01,0.488-0.033,0.741-0.044
		c1.25-0.055,2.464-0.135,3.673-0.221c0.297-0.021,0.612-0.031,0.907-0.054l0.005-0.021l7.454-30.982
		C979.816,867.205,978.051,867.315,976.229,867.386z"/>
	<path style="fill:#FCBD20;" d="M989.524,851.692c0.498-3.468,2.365-6.797,5.445-9.926c-6.578-6.657-18.198-13.561-33.028-19.608
		c-0.259,1.077-0.514,2.137-0.766,3.183c10.14,2.365,19.135,5.166,21.704,8.057c0.762,0.858,1.008,1.544,0.912,2.104
		c0.017,0.003,0.104,0.018,0.104,0.018s-1.229,5.666-1.697,7.054c-1.715,5.083-16.659,1.011-16.659,1.011s0.665,4.915-9.712,3.929
		c-0.002,1.714-0.006,3.671-0.008,5.787C969.357,854.361,981.023,853.79,989.524,851.692z"/>
	<path style="fill:#D18F00;" d="M994.969,841.766c2.167-2.202,4.914-4.296,8.193-6.27c-3.715-8.58-17.937-18.351-38.042-26.548
		c-0.929,3.862-2.069,8.602-3.178,13.21C976.772,828.205,988.392,835.109,994.969,841.766z"/>
	<path style="fill:#FCBD20;" d="M833.333,712.782c0,0-0.433,1.796-1.118,4.648c-0.275,1.141-0.59,2.452-0.934,3.884
		c-0.69,2.865-1.496,6.218-2.329,9.681c-0.208,0.866-0.418,1.739-0.629,2.613c-0.288,1.203-0.578,2.404-0.865,3.596
		c6.422-0.024,13.325,0.369,20.51,1.1C837.089,729.594,831.447,720.621,833.333,712.782z"/>
	<path style="fill:#FCBD20;" d="M971.02,807.114l-0.006,0.023c0.253-0.009,0.488-0.033,0.739-0.044
		c1.255-0.055,2.471-0.135,3.683-0.222c0.081-0.005,0.167-0.008,0.247-0.014c0.214-0.016,0.44-0.023,0.652-0.039l0.005-0.021
		l0.425-1.768c-0.037-0.131-0.045-0.264-0.078-0.396c0.086,0.337,0.221,0.668,0.334,1.002c0.121,0.359,0.208,0.721,0.358,1.076
		c0.163,0.387,0.38,0.766,0.577,1.149c0.189,0.364,0.389,0.727,0.608,1.087c0.447,0.733,0.967,1.455,1.539,2.17
		c0.243,0.305,0.458,0.615,0.724,0.917c0.868,0.986,1.829,1.955,2.927,2.901c0.199,0.171,0.44,0.334,0.646,0.504
		c0.939,0.775,1.943,1.536,3.029,2.281c0.486,0.333,1.011,0.657,1.525,0.983c0.901,0.573,1.841,1.136,2.828,1.688
		c0.604,0.338,1.212,0.674,1.847,1.003c1.055,0.547,2.165,1.078,3.302,1.602c0.62,0.286,1.21,0.579,1.853,0.857
		c1.474,0.638,3.02,1.253,4.615,1.851c0,2.972,0,6.295,0,9.651c0,3.793,0,7.626,0,11.047c0,1.105,0.18,2.193,0.456,3.271
		c0.086,0.337,0.222,0.669,0.334,1.004c0.252,0.748,0.555,1.489,0.935,2.222c0.189,0.366,0.389,0.728,0.609,1.09
		c0.444,0.731,0.964,1.451,1.535,2.165c0.245,0.307,0.46,0.618,0.727,0.922c0.869,0.984,1.83,1.953,2.926,2.898
		c0.202,0.174,0.447,0.34,0.657,0.513c0.936,0.771,1.935,1.53,3.017,2.272c0.489,0.335,1.015,0.659,1.532,0.987
		c0.899,0.571,1.834,1.132,2.819,1.682c0.605,0.339,1.217,0.677,1.854,1.007c1.053,0.547,2.163,1.076,3.298,1.599
		c0.62,0.286,1.211,0.579,1.854,0.858c1.72,0.744,3.515,1.464,5.396,2.153c0.705,0.258,1.463,0.496,2.189,0.746
		c1.295,0.446,2.602,0.887,3.964,1.307c0.951,0.294,1.932,0.573,2.915,0.853c1.23,0.351,2.483,0.691,3.761,1.02
		c1.045,0.269,2.09,0.537,3.166,0.791c1.375,0.325,2.789,0.627,4.211,0.927c1.021,0.216,2.015,0.443,3.057,0.645
		c2.304,0.446,4.666,0.858,7.077,1.236c1.14,0.179,2.315,0.33,3.477,0.493c1.083,0.153,2.142,0.321,3.243,0.46v-0.029v-31.866
		c-25.71-3.234-46.513-10.266-57.181-19.275c-0.309-0.093-0.585-0.199-0.891-0.293c0.949,0.292,1.928,0.572,2.908,0.851
		c1.232,0.352,2.486,0.692,3.767,1.022c1.048,0.271,2.096,0.538,3.174,0.793c1.362,0.322,2.764,0.622,4.172,0.919
		c1.033,0.219,2.04,0.448,3.098,0.653c2.298,0.445,4.654,0.856,7.059,1.234c1.154,0.181,2.345,0.334,3.521,0.499
		c1.071,0.151,2.119,0.318,3.208,0.455v-0.028v-31.866c-37.816-4.757-65.008-17.758-65.008-33.092c0,0,0,2.675,0,6.699
		c0,2.63,0,5.837,0,9.253L971.02,807.114z"/>
	<path style="fill:#FCBD20;" d="M958.599,733.007c12,2.566,23.555,5.792,26.526,9.137c0.762,0.858,1.008,1.544,0.912,2.104
		c0.017,0.003,0.102,0.018,0.102,0.018s-1.228,5.666-1.697,7.055c-1.715,5.083-16.659,1.01-16.659,1.01s0.984,6.86-16.354,2.796
		c-15.558-3.647-16.227-6.237-18.619-11.257c-0.478,2.671,1.785,6.028,3.062,7.961c0.418,0.632-12.577,3.014-13.107,2.405
		c-1.115-1.28-4.802-8.079-2.23-13.155c-5.009,2.705-11.05,4.034-23.704,0.911c-17.29-4.267-13.293-9.929-13.293-9.929
		s-13.53-4.923-14.191-8.43c-0.126-0.673,1.193-5.464,1.599-6.909c0.022-0.127,0.041-0.254,0.105-0.376
		c0.004-0.011,0.019-0.066,0.019-0.066s0.027,0.008,0.028,0.008c0.255-0.435,0.744-0.84,1.63-1.186
		c4.328-1.69,16.837,0.944,29.14,4.296c-0.916-1.168-0.978-2.794-0.716-4.33c-22.833-2.49-41.356-0.664-49.653,5.107
		c4.605,8.715,19.582,18.526,40.315,26.606c7.294,2.071,14.217,4.401,20.756,6.905c3.174,0.897,6.396,1.764,9.709,2.561
		c21.12,5.08,40.883,7.028,55.964,6.114c2.884-5.059,8.852-9.696,17.042-13.701c-7.508-6.703-19.916-13.552-35.347-19.433
		C959.467,730.749,958.975,732.213,958.599,733.007z"/>
	<path style="fill:#D18F00;" d="M850.47,717.796c0.084,0.268,0.168,0.537,0.274,0.808c0.206,0.529,0.43,1.06,0.716,1.598
		c0.013-0.008,0.028-0.016,0.04-0.024c8.297-5.772,26.82-7.597,49.653-5.107c0.367-2.151,1.308-4.073,1.308-4.073L902.47,711
		c0.036-1.112,1.016-1.982,3.325-2.465c10.243-2.144,26.128,5.754,26.128,5.754s18.589,0.13,27.826,6.783
		c1.475,1.063,1.959,1.987,1.731,2.798l0.013,0.002c0,0-0.746,2.768-1.553,5.358c15.431,5.882,27.839,12.73,35.347,19.433
		c3.099-1.515,6.476-2.949,10.195-4.262c-5.367-12.823-34.346-28.401-71.374-37.309c-5.386-1.296-10.685-2.389-15.844-3.284
		c-25.789-4.472-48.018-3.976-59.658,1c-4.655,1.991-7.618,4.699-8.434,8.092c-0.179,0.744-0.209,1.511-0.177,2.287
		c0.008,0.235,0.031,0.472,0.059,0.709C850.132,716.521,850.268,717.154,850.47,717.796z"/>
	<path style="fill:#ECA100;" d="M901.87,719.4c5.965,1.625,11.882,3.416,16.793,4.97c-7.389-4.177-16.31-9.945-16.192-13.371
		l-0.008-0.003c0,0-0.942,1.922-1.308,4.073C900.892,716.606,900.954,718.232,901.87,719.4z"/>
	<path style="fill:#ECA100;" d="M969.334,745.891c0,0,0.985,6.86-16.354,2.796c-15.558-3.646-21.359-9.112-23.751-14.132
		c-4.727,4.755,0.336,12.457,1.613,14.389c0.418,0.633-5.588,1.22-6.118,0.611c-1.115-1.28-4.375-11.598,2.307-15.795
		c-5.008,2.705-15.994,4.915-28.648,1.792c-17.291-4.266-13.293-9.929-13.293-9.929s-14.749-5.38-14.141-8.898
		c-0.406,1.445-1.725,6.237-1.599,6.909c0.661,3.507,14.191,8.43,14.191,8.43s-3.997,5.662,13.293,9.929
		c12.654,3.123,18.695,1.794,23.704-0.911c-2.572,5.076,1.116,11.875,2.23,13.155c0.53,0.609,13.525-1.773,13.107-2.405
		c-1.278-1.932-3.541-5.29-3.062-7.961c2.392,5.02,3.061,7.61,18.619,11.257c17.338,4.065,16.354-2.796,16.354-2.796
		s14.944,4.073,16.659-1.01c0.469-1.389,1.697-7.055,1.697-7.055s-0.085-0.016-0.102-0.018
		C985.416,747.875,969.334,745.891,969.334,745.891z"/>
	<path style="fill:#ECA100;" d="M937.587,729.106c5.859,0.952,13.521,2.299,21.012,3.901c0.376-0.794,0.868-2.258,1.341-3.779
		c0.806-2.59,1.553-5.358,1.553-5.358l-0.013-0.002C960.538,727.22,947.084,728.571,937.587,729.106z"/>
	<path style="fill:#ECA100;" d="M859.136,876.125c-11.098-0.017-21.714-0.746-31.638-2.01l-0.048,31.867
		c9.924,1.264,20.539,1.992,31.637,2.009c22.37,0.034,42.911-2.716,59.297-7.318l0.048-31.867
		C902.046,873.408,881.505,876.159,859.136,876.125z"/>
	<path style="fill:#ECA100;" d="M923.533,867.261l-0.049,31.866c1.803-0.583,3.421-1.232,5.101-1.86l0.049-31.758
		C927.002,866.119,925.284,866.695,923.533,867.261z"/>
	<path style="fill:#FCBD20;" d="M775.596,858.497c-4.448,0.313-8.826,0.531-13.082,0.606c-0.007,4.622-0.015,9.467-0.021,13.686
		c-0.001,1.104,0.177,2.193,0.45,3.271c0.086,0.337,0.221,0.67,0.334,1.004c0.25,0.749,0.553,1.491,0.931,2.224
		c0.189,0.365,0.386,0.728,0.606,1.09c0.029,0.047,0.051,0.095,0.08,0.142c0.424,0.685,0.921,1.359,1.454,2.028
		c0.243,0.306,0.458,0.616,0.724,0.919c0.866,0.986,1.826,1.957,2.921,2.903c0.202,0.175,0.448,0.342,0.659,0.516
		c0.935,0.773,1.933,1.533,3.014,2.276c0.485,0.334,1.008,0.658,1.523,0.985c0.9,0.574,1.836,1.137,2.821,1.69
		c0.605,0.341,1.216,0.679,1.852,1.01c1.049,0.546,2.155,1.076,3.285,1.6c0.625,0.289,1.22,0.585,1.868,0.867
		c1.716,0.746,3.508,1.468,5.386,2.159c0.706,0.261,1.466,0.5,2.195,0.752c1.293,0.447,2.597,0.889,3.955,1.311
		c0.95,0.295,1.928,0.575,2.91,0.857c1.23,0.353,2.483,0.695,3.759,1.026c1.049,0.272,2.097,0.541,3.177,0.798
		c1.362,0.324,2.764,0.626,4.173,0.926c1.032,0.219,2.038,0.452,3.094,0.658c2.301,0.449,4.658,0.864,7.064,1.246
		c1.143,0.181,2.321,0.334,3.486,0.499c1.079,0.153,2.137,0.323,3.235,0.464v-0.029l0.048-31.867
		C805.48,871.31,787.117,865.72,775.596,858.497z"/>
	<path style="fill:#FCBD20;" d="M918.432,868.805l-0.048,31.867v0.024c0.245-0.069,0.47-0.147,0.713-0.217
		c1.2-0.344,2.359-0.702,3.512-1.066c0.286-0.091,0.592-0.174,0.876-0.265v-0.022l0.049-31.866
		C921.878,867.795,920.188,868.312,918.432,868.805z"/>
	<path style="fill:#FCBD20;" d="M932.411,895.847l0.049-31.858c-1.235,0.52-2.508,1.027-3.826,1.52l-0.049,31.758v0.106
		c1.067-0.399,2.082-0.815,3.093-1.233C931.918,896.04,932.174,895.947,932.411,895.847z"/>
	<path style="fill:#FCBD20;" d="M940.066,892.176v0.003c0.072-0.04,0.13-0.083,0.203-0.124c1.438-0.803,2.791-1.627,4.049-2.473
		l0.049-31.836c-1.307,0.881-2.748,1.731-4.252,2.563L940.066,892.176z"/>
	<path style="fill:#FCBD20;" d="M931.182,848.466c-0.078,0.013-0.168,0.016-0.246,0.029c0.143-0.023,0.292-0.04,0.434-0.063
		c0.083-0.013,0.17-0.023,0.252-0.037l0.003-0.01l7.45-30.963c-1.324,0.218-2.679,0.416-4.075,0.589l-7.429,30.876
		c-1.781,0.221-3.504,0.478-5.395,0.626l7.454-30.982c-1.734,0.135-3.499,0.245-5.321,0.317l-7.453,30.982
		c-4.549,0.179-9.326,0.18-14.348-0.048c-0.536,1.915-3.302,4.832-15.259,4.883c-15.98,0.069-17.233-2.294-20.726-6.622
		c0.156,2.709,3.137,5.449,4.828,7.031c0.553,0.518-11.532,5.855-12.19,5.386c-1.38-0.986-6.547-6.741-5.225-12.276
		c-4.243,3.795-9.81,6.491-22.843,6.396c-7.352-0.054-11.201-1.186-13.22-2.494c-4.826,1.157-9.864,2.169-15.024,3.075
		c14.482,4.523,34.357,7.337,56.31,7.37C890.807,862.577,918.107,856.832,931.182,848.466z"/>
	<path style="fill:#FCBD20;" d="M690.573,837.568c0.127,0.323,0.302,0.634,0.454,0.951c0.342,0.712,0.737,1.41,1.206,2.091
		c0.232,0.338,0.476,0.673,0.738,1.003c0.535,0.672,1.141,1.324,1.797,1.962c0.28,0.272,0.531,0.552,0.832,0.819
		c0.984,0.87,2.059,1.711,3.264,2.513c0.223,0.148,0.488,0.282,0.718,0.429c1.025,0.649,2.11,1.277,3.274,1.877
		c0.525,0.271,1.088,0.527,1.639,0.788c0.966,0.456,1.965,0.897,3.012,1.321c0.642,0.26,1.289,0.518,1.961,0.767
		c1.112,0.411,2.279,0.799,3.47,1.176c0.652,0.207,1.276,0.425,1.951,0.622c1.797,0.523,3.665,1.014,5.616,1.463
		c0.739,0.171,1.53,0.314,2.292,0.474c1.332,0.279,2.675,0.552,4.068,0.797c0.983,0.174,1.992,0.329,3.002,0.485
		c1.262,0.194,2.541,0.375,3.846,0.542c1.08,0.139,2.161,0.274,3.271,0.394c1.382,0.149,2.8,0.271,4.226,0.39
		c1.057,0.089,2.09,0.193,3.17,0.264c2.338,0.155,4.73,0.27,7.167,0.345c1.154,0.036,2.343,0.039,3.519,0.056
		c1.092,0.016,2.162,0.052,3.269,0.052l-0.004-0.029l-3.966-31.619c-38.113-0.014-66.712-9.529-68.621-24.744
		c0,0,0.508,4.051,1.211,9.656c0.814,6.488,1.89,15.064,2.755,21.963C689.85,835.475,690.164,836.533,690.573,837.568z"/>
	<path style="fill:#ECA100;" d="M864.935,812.182c-10.79-2.596-20.945-5.771-30.304-9.308l-7.454,30.982l-0.006,0.029
		c-1.036-0.391-2.023-0.802-3.038-1.202c-1.095-0.432-2.208-0.855-3.278-1.297c-2.254-0.931-4.453-1.884-6.589-2.856
		c-0.966-0.44-1.879-0.894-2.819-1.341c-1.313-0.624-2.618-1.249-3.878-1.887c-0.985-0.498-1.938-1.002-2.889-1.508
		c-0.613-0.325-1.253-0.644-1.852-0.972c-5.45,1.044-11.047,1.966-16.822,2.691c-11.012,1.381-21.634,1.996-31.638,1.993
		l3.966,31.619c1.388,0.001,2.767,0.006,4.18-0.019c4.256-0.075,8.633-0.293,13.082-0.606c4.718-0.333,9.496-0.755,14.376-1.367
		c4.393-0.551,8.665-1.234,12.875-1.973c5.161-0.905,10.199-1.918,15.024-3.075c2.019,1.307,5.868,2.439,13.22,2.494
		c13.033,0.096,18.6-2.601,22.843-6.396c-1.322,5.535,3.845,11.29,5.225,12.276c0.658,0.47,12.743-4.867,12.19-5.386
		c-1.692-1.583-4.672-4.322-4.828-7.031c3.493,4.327,4.746,6.69,20.726,6.622c11.957-0.051,14.724-2.969,15.259-4.883
		c5.023,0.229,9.799,0.227,14.348,0.048l7.453-30.982C907.302,819.513,886.684,817.415,864.935,812.182z M832.927,847.883
		c5.331-1.693,10.325-3.528,14.946-5.484l0.004,0.024c0.233-0.098,0.443-0.202,0.674-0.301c0.619-0.265,1.259-0.524,1.866-0.795
		c1.338,0.361,2.687,0.709,4.045,1.052C849.54,845.15,841.983,847.633,832.927,847.883z M859.976,855.448
		c-1.129-0.806-4.96-7.135-3.34-12.503c0.286,0.069,0.559,0.151,0.845,0.22c0.828,0.199,1.638,0.355,2.463,0.545
		c0.26,4.43,4.529,8.497,5.84,9.723C866.337,853.95,860.633,855.918,859.976,855.448z"/>
	<path style="fill:#D18F00;" d="M750.006,780.954c-0.417-2.142-0.215-4.273-0.215-4.273h0.008c-0.357-1.055,0.251-2.213,2.241-3.481
		c6.735-4.291,18.584-4.27,23.833-4.019c0.477-1.986,0.924-3.838,1.332-5.537c0.14-0.58,0.29-1.202,0.418-1.735
		c-43.779,5.561-77.813,21.204-76.079,35.016c0.095,0.76,0.336,1.49,0.644,2.205c0.09,0.214,0.192,0.425,0.302,0.635
		c0.295,0.565,0.651,1.116,1.072,1.652c0.164,0.208,0.324,0.415,0.506,0.618c0.386,0.431,0.793,0.857,1.259,1.267
		c0.009-0.012,0.021-0.024,0.029-0.037C711.08,794.936,727.765,786.687,750.006,780.954z"/>
	<path style="fill:#ECA100;" d="M749.8,776.682h-0.008c0,0-0.202,2.131,0.215,4.273c0.297,1.53,0.929,3.029,2.198,3.798
		c6.155-0.586,12.324-0.999,17.468-1.279C761.284,782.174,750.901,779.928,749.8,776.682z"/>
	<path style="fill:#ECA100;" d="M738.703,796.499c0,0-15.685,0.174-16.371-3.327c0.132,1.5,0.587,6.44,0.943,7.024
		c1.857,3.048,16.253,2.877,16.253,2.877s-1.741,6.708,15.943,4.595c10.767-1.287,16.137-3.852,19.794-7.149
		c-0.581-0.868-1.124-1.732-1.579-2.591c-0.189-0.357-0.325-0.709-0.492-1.065c-0.216-0.462-0.462-0.927-0.64-1.385
		c-4.664,2.534-10.728,4.758-17.909,5.616C736.963,803.208,738.703,796.499,738.703,796.499z"/>
	<path style="fill:#ECA100;" d="M955.481,838.629c2.083-2.057,3.546-4.356,4.167-6.938c0.461-1.922,0.984-4.09,1.527-6.349
		c0.252-1.047,0.507-2.107,0.766-3.183c1.109-4.608,2.249-9.347,3.178-13.21c0.139-0.578,0.274-1.145,0.403-1.679
		c1.888-0.007,3.689-0.084,5.498-0.155l5.212-21.665c0-3.416,0-6.622,0-9.253c-7.354,0.18-15.33-0.15-23.767-1.009
		c10.881,8.709,16.521,17.682,14.636,25.521c-1.4,5.818-6.757,10.32-14.997,13.406l-7.442,30.933
		C949.213,843.336,952.884,841.195,955.481,838.629z"/>
	<path style="fill:#ECA100;" d="M939.917,846.603l7.455-30.982c-2.565,0.714-5.337,1.311-8.298,1.8l-7.45,30.963
		C934.574,847.897,937.361,847.315,939.917,846.603z"/>
	<path style="fill:#ECA100;" d="M927.57,848.885l7.429-30.876c-1.73,0.214-3.535,0.375-5.369,0.519l-7.454,30.982
		C924.066,849.363,925.789,849.106,927.57,848.885z"/>
	<path style="fill:#FCBD20;" d="M807.569,825.301c1.261,0.638,2.565,1.263,3.878,1.887c0.94,0.448,1.853,0.901,2.819,1.341
		c2.135,0.972,4.334,1.925,6.589,2.856c1.07,0.442,2.183,0.865,3.278,1.297c1.014,0.4,2.002,0.811,3.038,1.202l0.006-0.029
		l7.454-30.982c-35.653-13.47-59.05-32.471-55.464-47.379c0,0.001-0.432,1.796-1.118,4.648c-0.247,1.029-0.537,2.232-0.843,3.501
		c-0.408,1.699-0.854,3.552-1.332,5.537c-0.875,3.635-1.827,7.594-2.743,11.401c-0.489,2.036-0.971,4.034-1.418,5.895
		c-0.258,1.074-0.338,2.174-0.323,3.287c0.005,0.347,0.059,0.7,0.09,1.052c0.069,0.787,0.193,1.579,0.39,2.381
		c0.098,0.399,0.207,0.799,0.336,1.201c0.116,0.361,0.207,0.718,0.347,1.081c0.178,0.458,0.424,0.923,0.64,1.385
		c0.167,0.355,0.303,0.708,0.492,1.065c0.455,0.859,0.998,1.723,1.579,2.591c-3.657,3.297-9.027,5.862-19.794,7.149
		c-17.684,2.113-15.943-4.595-15.943-4.595s-14.396,0.171-16.253-2.877c-0.356-0.584-0.811-5.525-0.943-7.024
		c-0.025-0.129-0.051-0.257-0.034-0.395c-0.001-0.011-0.006-0.067-0.006-0.067s0.028-0.001,0.029-0.001
		c0.084-0.497,0.398-1.049,1.105-1.685c3.452-3.109,16.085-5.062,28.779-6.27c-1.269-0.769-1.901-2.269-2.198-3.798
		c-22.241,5.732-38.927,13.981-44.65,22.31c10.655,9.419,42.374,13.346,78.958,8.757c0.587-0.074,1.152-0.169,1.736-0.246
		c0.237,0.191,0.484,0.383,0.726,0.574c0.537,0.423,1.043,0.847,1.604,1.269c1.498,1.125,3.076,2.246,4.746,3.357
		c0.619,0.413,1.295,0.818,1.937,1.228c1.159,0.74,2.333,1.477,3.564,2.207c0.854,0.506,1.738,1.005,2.625,1.505
		c0.532,0.301,1.033,0.607,1.577,0.905c0.598,0.328,1.239,0.647,1.852,0.972C805.631,824.299,806.584,824.802,807.569,825.301z
		 M782.957,809.179c-0.579-0.465-1.251-1.075-1.959-1.849c0.436,0.429,0.919,0.856,1.382,1.283c0.509,0.47,1.023,0.94,1.564,1.409
		C783.62,809.741,783.272,809.461,782.957,809.179z"/>
	<path style="fill:#FCBD20;" d="M939.917,846.606c0.076-0.021,0.138-0.047,0.212-0.069c1.592-0.447,3.105-0.936,4.528-1.468
		l0.005-0.021l7.442-30.933c-1.476,0.553-3.075,1.045-4.733,1.506l-7.455,30.982V846.606z"/>
	<path style="fill:#FCBD20;" d="M905.774,771.942c-0.473,1.521-0.964,2.985-1.341,3.78c12,2.566,23.556,5.792,26.526,9.137
		c0.763,0.858,1.009,1.543,0.912,2.104c0.017,0.003,0.102,0.018,0.102,0.018s-1.228,5.666-1.697,7.055
		c-1.715,5.083-16.659,1.01-16.659,1.01s0.984,6.86-16.354,2.796c-15.558-3.646-16.226-6.236-18.619-11.257
		c-0.479,2.671,1.785,6.028,3.062,7.961c0.418,0.632-12.577,3.014-13.107,2.405c-1.115-1.28-4.803-8.079-2.231-13.155
		c-5.008,2.704-11.05,4.034-23.704,0.911c-17.29-4.266-13.292-9.929-13.292-9.929s-13.53-4.923-14.191-8.43
		c-0.125-0.673,1.194-5.464,1.599-6.91c0.022-0.127,0.041-0.254,0.105-0.376c0.003-0.011,0.019-0.066,0.019-0.066
		s0.027,0.008,0.028,0.008c0.255-0.435,0.744-0.84,1.63-1.186c4.327-1.69,16.836,0.943,29.14,4.296
		c-0.916-1.167-0.978-2.794-0.716-4.33c-22.833-2.49-41.355-0.665-49.653,5.107c6.644,12.575,34.933,27.448,70.781,36.072
		c35.848,8.624,67.806,8.245,79.442,0.067C942.803,790.133,927.184,780.102,905.774,771.942z"/>
	<path style="fill:#D18F00;" d="M796.305,760.509c0.084,0.269,0.168,0.537,0.274,0.808c0.206,0.529,0.43,1.06,0.716,1.598
		c0.012-0.008,0.028-0.016,0.04-0.024c8.297-5.772,26.82-7.597,49.653-5.107c0.367-2.151,1.308-4.073,1.308-4.073l0.008,0.003
		c0.037-1.113,1.016-1.982,3.326-2.466c10.242-2.144,26.128,5.754,26.128,5.754s18.588,0.13,27.826,6.783
		c1.475,1.062,1.959,1.986,1.731,2.797l0.013,0.001c0,0-0.748,2.767-1.553,5.358c21.409,8.16,37.028,18.192,41.783,27.089
		c0.008,0.013,0.018,0.027,0.026,0.041c0.509-0.356,0.961-0.733,1.392-1.118c0.204-0.183,0.386-0.371,0.571-0.56
		c0.479-0.484,0.892-0.992,1.247-1.52c0.132-0.197,0.258-0.396,0.373-0.6c0.383-0.677,0.704-1.374,0.883-2.119
		c3.266-13.575-29.018-32.983-72.107-43.35c-5.386-1.296-10.685-2.389-15.844-3.284c-25.789-4.472-48.018-3.976-59.657,1
		c-4.655,1.991-7.618,4.699-8.434,8.093c-0.179,0.743-0.209,1.51-0.177,2.286c0.008,0.235,0.032,0.472,0.06,0.71
		C795.966,759.235,796.103,759.868,796.305,760.509z"/>
	<path style="fill:#ECA100;" d="M915.168,788.604c0,0,0.986,6.86-16.354,2.796c-15.558-3.647-21.359-9.112-23.752-14.133
		c-4.727,4.756,0.336,12.457,1.614,14.389c0.418,0.633-5.588,1.22-6.118,0.611c-1.115-1.28-4.375-11.598,2.307-15.795
		c-5.008,2.705-15.994,4.915-28.648,1.792c-17.291-4.266-13.293-9.929-13.293-9.929s-14.749-5.38-14.141-8.898
		c-0.406,1.446-1.725,6.237-1.599,6.91c0.661,3.507,14.191,8.43,14.191,8.43s-3.998,5.663,13.292,9.929
		c12.654,3.123,18.695,1.794,23.704-0.911c-2.572,5.076,1.116,11.875,2.231,13.155c0.53,0.609,13.525-1.773,13.107-2.405
		c-1.278-1.932-3.541-5.29-3.062-7.961c2.392,5.02,3.061,7.61,18.619,11.257c17.339,4.065,16.354-2.796,16.354-2.796
		s14.944,4.073,16.659-1.01c0.469-1.388,1.697-7.055,1.697-7.055s-0.085-0.016-0.102-0.018
		C931.251,790.589,915.168,788.604,915.168,788.604z"/>
	<path style="fill:#ECA100;" d="M847.704,762.114c5.964,1.625,11.882,3.416,16.793,4.971c-7.389-4.178-16.31-9.945-16.193-13.371
		l-0.008-0.003c0,0-0.942,1.922-1.308,4.073C846.726,759.32,846.788,760.946,847.704,762.114z"/>
	<path style="fill:#ECA100;" d="M883.422,771.82c5.859,0.952,13.521,2.299,21.012,3.901c0.377-0.795,0.868-2.259,1.341-3.78
		c0.805-2.59,1.553-5.358,1.553-5.358l-0.013-0.001C906.374,769.933,892.918,771.285,883.422,771.82z"/>
	<path style="fill:#ECA100;" d="M1159.221,876.34v31.858c-0.059,0.025-0.123,0.048-0.183,0.073c2.833-1.184,5.457-2.436,7.831-3.756
		v-31.866C1164.543,873.943,1161.985,875.172,1159.221,876.34z"/>
	<path style="fill:#ECA100;" d="M1150.298,879.626v31.866c1.763-0.573,3.453-1.172,5.099-1.788v-31.838
		C1153.766,878.479,1152.048,879.058,1150.298,879.626z"/>
	<path style="fill:#ECA100;" d="M1085.916,888.589c-11.098,0-21.715-0.712-31.641-1.961v31.866
		c9.926,1.249,20.543,1.961,31.641,1.961c22.369,0,42.905-2.782,59.284-7.409v-31.867
		C1128.821,885.806,1108.285,888.589,1085.916,888.589z"/>
	<path style="fill:#ECA100;" d="M1182.563,885.116c0-5.973,0-14.038,0-20.535c0.603-0.359,1.238-0.71,1.805-1.078
		c0.211-0.136,0.391-0.278,0.596-0.415c-1.187,0.792-2.441,1.569-3.789,2.321c-0.062,0.035-0.112,0.072-0.174,0.107v-0.003V836.35
		c-0.839-0.472-1.641-0.951-2.418-1.438c-1.653,0.837-3.385,1.648-5.231,2.428v31.857c-0.778,0.328-1.595,0.643-2.401,0.962
		c0.037-0.015,0.077-0.026,0.113-0.041c0.017-0.007,0.035-0.014,0.052-0.021v31.77c1.649-1.121,3.179-2.267,4.492-3.457
		c4.444-4.025,6.954-8.408,6.954-13.008C1182.563,885.31,1182.563,885.209,1182.563,885.116z"/>
	<path style="fill:#FCBD20;" d="M989.266,853.535c0,0,0,5.546,0,12.676c-0.781,0.115-1.543,0.24-2.348,0.34l-7.447,30.956
		l-0.006,0.024c1.318-0.163,2.587-0.356,3.84-0.56c0.077-0.013,0.16-0.022,0.237-0.034l5.724-23.796c0,4.183,0,8.475,0,12.262
		c0,1.105,0.181,2.193,0.456,3.271c0.086,0.337,0.221,0.669,0.333,1.004c0.252,0.748,0.556,1.489,0.935,2.222
		c0.189,0.365,0.389,0.728,0.609,1.089c0.183,0.302,0.334,0.607,0.54,0.906l-0.301,1.251l-0.002,0.003
		c0.069-0.019,0.127-0.044,0.196-0.063c0.292-0.082,0.546-0.185,0.833-0.27c0.001,0.003,0.004,0.005,0.006,0.008
		c0.087,0.112,0.176,0.223,0.264,0.334c0.243,0.306,0.458,0.615,0.723,0.917c0.869,0.986,1.832,1.956,2.929,2.901
		c0.198,0.172,0.44,0.334,0.647,0.504c0.939,0.774,1.943,1.536,3.028,2.28c0.486,0.333,1.01,0.656,1.524,0.983
		c0.904,0.573,1.842,1.136,2.83,1.688c0.604,0.338,1.212,0.673,1.846,1.003c1.055,0.547,2.166,1.078,3.302,1.602
		c0.62,0.285,1.209,0.579,1.852,0.857c1.719,0.743,3.513,1.462,5.394,2.152c0.712,0.261,1.478,0.502,2.213,0.755
		c1.286,0.443,2.583,0.881,3.935,1.297c0.955,0.295,1.938,0.576,2.926,0.857c1.228,0.35,2.478,0.689,3.753,1.017
		c1.049,0.27,2.099,0.539,3.179,0.794c1.367,0.323,2.772,0.624,4.186,0.923c1.026,0.216,2.026,0.445,3.073,0.648
		c2.305,0.446,4.666,0.858,7.077,1.236c1.141,0.179,2.317,0.329,3.479,0.493c1.083,0.152,2.141,0.321,3.242,0.46v-0.029v-31.866
		C1016.46,881.87,989.266,868.87,989.266,853.535z"/>
	<path style="fill:#FCBD20;" d="M1145.2,881.179v31.867v0.023c0.241-0.068,0.462-0.145,0.7-0.214
		c1.213-0.349,2.385-0.713,3.549-1.083c0.277-0.088,0.574-0.17,0.849-0.258v-0.022v-31.866
		C1148.644,880.163,1146.953,880.683,1145.2,881.179z"/>
	<path style="fill:#FCBD20;" d="M1159.221,876.34c-1.235,0.522-2.508,1.032-3.824,1.526v31.838v0.026
		c1.257-0.472,2.459-0.962,3.642-1.459c0.06-0.025,0.123-0.048,0.183-0.073V876.34z"/>
	<path style="fill:#FCBD20;" d="M1171.065,870.118c-1.29,0.87-2.714,1.707-4.196,2.531v31.866v0.003
		c0.066-0.037,0.119-0.077,0.185-0.114c1.443-0.808,2.802-1.638,4.063-2.49v-0.048v-31.77
		C1171.101,870.104,1171.083,870.111,1171.065,870.118z"/>
	<path style="fill:#ECA100;" d="M1196.691,846.427c0-0.008,0.004-0.017,0.004-0.026c0-1.029,0-2.14,0-3.281
		c-0.323-0.108-0.642-0.218-0.961-0.328c-0.726-0.25-1.483-0.488-2.188-0.746c-1.882-0.69-3.677-1.409-5.397-2.153
		c-0.645-0.279-1.234-0.572-1.854-0.858c-0.35-0.161-0.704-0.32-1.046-0.484v24.341
		C1192.497,857.979,1196.679,852.385,1196.691,846.427z"/>
	<path style="fill:#ECA100;" d="M1169.53,870.668v-31.803c-1.631,0.613-3.35,1.192-5.099,1.76v31.867
		C1166.211,871.913,1167.873,871.292,1169.53,870.668z"/>
	<path style="fill:#ECA100;" d="M1100.047,881.453c22.369,0,42.906-2.782,59.285-7.41v-31.867
		c-16.379,4.627-36.916,7.41-59.285,7.41c-11.098,0-21.715-0.712-31.641-1.961v31.866
		C1078.332,880.742,1088.95,881.453,1100.047,881.453z"/>
	<path style="fill:#FCBD20;" d="M1159.332,874.068c0.246-0.07,0.473-0.148,0.716-0.219c1.2-0.345,2.358-0.705,3.51-1.071
		c0.285-0.091,0.59-0.174,0.872-0.266v-0.021v-31.867c-1.654,0.537-3.345,1.057-5.099,1.552v31.867V874.068z"/>
	<path style="fill:#FCBD20;" d="M1169.53,870.668v0.061c0.491-0.184,0.945-0.381,1.422-0.57c0.805-0.319,1.622-0.634,2.401-0.962
		v-31.857c-1.235,0.521-2.506,1.031-3.823,1.526V870.668z"/>
	<path style="fill:#ECA100;" d="M1072.882,836.416c6.061,0,11.97-0.228,17.723-0.615c15.475-1.042,29.621-3.421,41.561-6.794V797.14
		c-16.378,4.627-36.914,7.41-59.284,7.41c-11.099,0-21.715-0.712-31.641-1.961v31.866
		C1051.167,835.704,1061.783,836.416,1072.882,836.416z"/>
	<path style="fill:#ECA100;" d="M1142.363,825.667v-31.839c-1.631,0.613-3.349,1.191-5.099,1.76v31.866
		C1139.027,826.881,1140.716,826.281,1142.363,825.667z"/>
	<path style="fill:#D18F00;" d="M1043.027,751.592l0.008,0.001c-0.224-1.091,0.524-2.165,2.657-3.174
		c9.457-4.481,26.749-0.517,26.749-0.517s6.558-1.518,14.071-1.798c0.173-1.686,0.356-3.468,0.543-5.294
		c-4.608-0.259-9.328-0.418-14.173-0.418c-44.32,0-80.249,11.319-80.249,25.281c0,0.765,0.149,1.517,0.363,2.264
		c0.064,0.227,0.141,0.453,0.224,0.678c0.221,0.589,0.501,1.172,0.848,1.748c0.144,0.241,0.288,0.482,0.453,0.72
		c0.325,0.466,0.668,0.931,1.072,1.387c0.01-0.011,0.024-0.021,0.034-0.033c6.715-7.552,24.298-13.659,47.081-16.58
		C1042.56,753.681,1043.027,751.592,1043.027,751.592z"/>
	<path style="fill:#ECA100;" d="M1092.266,760.284c-0.682-0.743-1.312-1.49-1.879-2.241c-3.023,1.09-6.172,2.096-8.973,2.94
		C1084.594,760.744,1088.321,760.496,1092.266,760.284z"/>
	<path style="fill:#ECA100;" d="M1043.035,751.593l-0.008-0.001c0,0-0.467,2.089-0.319,4.266c0.105,1.555,0.546,3.121,1.709,4.042
		c6.18,0.185,12.351,0.543,17.491,0.906C1053.745,758.472,1043.722,754.952,1043.035,751.593z"/>
	<path style="fill:#ECA100;" d="M1100.958,776.419c-15.979,0.093-22.899-3.863-26.398-8.185c-3.483,5.729,3.241,12.033,4.934,13.613
		c0.554,0.517-5.147,2.493-5.805,2.025c-1.383-0.984-6.967-10.252-1.452-15.896c-4.237,3.801-14.401,8.52-27.434,8.443
		c-17.809-0.104-15.248-6.544-15.248-6.544s-15.596-1.781-15.829-5.343c-0.056,1.502-0.219,6.466,0.061,7.091
		c1.463,3.255,15.768,4.876,15.768,4.876s-2.561,6.44,15.248,6.544c13.033,0.076,18.596-2.629,22.833-6.43
		c-1.314,5.537,3.861,11.284,5.245,12.268c0.657,0.469,12.734-4.887,12.18-5.404c-1.693-1.58-4.678-4.315-4.838-7.024
		c3.499,4.322,4.755,6.683,20.734,6.59c17.809-0.104,15.247-6.544,15.247-6.544s0.656,0.018,1.675,0.004
		c0.853,0.36,1.742,0.708,2.624,1.061c-0.956-0.382-1.911-0.763-2.833-1.154c-1.296-0.55-2.536-1.116-3.766-1.684
		c-0.709-0.329-1.452-0.649-2.139-0.984c0.49,0.24,1.017,0.47,1.521,0.707C1111.081,775.526,1107.343,776.383,1100.958,776.419z"/>
	<path style="fill:#ECA100;" d="M1259.125,852.398c-4.417,4.104-11.782,8.641-21.408,10.882
		c-17.346,4.038-16.351-2.821-16.351-2.821s-15.589,1.893-16.639-1.519c0.293,1.471,1.291,6.342,1.709,6.885
		c2.181,2.826,16.47,1.078,16.47,1.078s-0.995,6.859,16.351,2.821c12.694-2.955,17.476-6.879,20.712-11.561
		c0.01,5.691,6.38,10.078,7.953,10.714c0.749,0.303,11.251-7.714,10.592-8.087c-2.015-1.143-5.554-3.11-6.339-5.707
		c4.408,3.39,6.179,5.395,21.699,1.59c11.614-2.847,13.621-6.331,13.693-8.317c4.938-0.953,9.582-2.071,13.963-3.309v-31.866
		c-16.379,4.627-36.915,7.41-59.285,7.41c-11.099,0-21.715-0.712-31.641-1.961v31.866
		C1239.589,851.625,1249.158,852.282,1259.125,852.398z M1262.246,852.455c0.851,0,1.675-0.038,2.521-0.046
		c1.289,4.246,6.392,7.202,7.953,8.088c0.659,0.374-4.427,3.621-5.175,3.318c-1.286-0.52-6.492-5.777-6.173-11.375
		C1261.666,852.44,1261.951,852.455,1262.246,852.455z"/>
	<path style="fill:#ECA100;" d="M1356.465,825.122c0.841-1.354,1.535-2.728,1.929-4.135c1.21-0.411,2.377-0.837,3.528-1.269v-31.839
		c-0.984,0.37-2.002,0.724-3.028,1.078c0-2.121,0-3.42,0-3.42c0,5.985-4.156,11.615-11.446,16.544v31.816
		C1351.473,831.167,1354.54,828.225,1356.465,825.122z"/>
	<path style="fill:#ECA100;" d="M1343.199,836.516V804.65c-2.326,1.294-4.884,2.523-7.648,3.691v31.847
		C1338.307,839.024,1340.879,837.806,1343.199,836.516z"/>
	<path style="fill:#ECA100;" d="M1331.728,841.703v-31.837c-1.631,0.613-3.349,1.192-5.099,1.76v31.866
		C1328.393,842.92,1330.082,842.32,1331.728,841.703z"/>
	<path style="fill:#FCBD20;" d="M1343.199,836.519c0.062-0.034,0.112-0.072,0.174-0.107c1.449-0.81,2.809-1.642,4.074-2.496v-0.02
		V802.08c-1.307,0.883-2.745,1.735-4.248,2.57v31.867V836.519z"/>
	<path style="fill:#FCBD20;" d="M1292.12,775.9c12.266-0.312,24.255,0.122,27.926,2.679c0.941,0.656,1.341,1.265,1.379,1.832
		c0.018-0.001,0.106-0.006,0.106-0.006s0.13,5.796,0,7.256c-0.479,5.343-15.961,4.879-15.961,4.879s2.561,6.44-15.246,6.544
		c-15.98,0.093-17.236-2.268-20.736-6.589c0.16,2.708,3.145,5.443,4.839,7.023c0.554,0.517-11.524,5.873-12.181,5.404
		c-1.382-0.984-6.559-6.731-5.245-12.268c-4.236,3.801-9.799,6.507-22.833,6.43c-17.808-0.104-15.247-6.544-15.247-6.544
		s-0.95-0.108-2.378-0.322c-8.703,0.427-17.988,0.356-27.644-0.277c12.472,8.862,40.594,15.052,73.347,15.052
		c36.87,0,67.853-7.843,77.253-18.515c-6.703-7.539-24.235-13.64-46.96-16.565C1292.434,773.501,1292.299,775.04,1292.12,775.9z"/>
	<path style="fill:#D18F00;" d="M1290.445,764.027c1.682,0.688,2.369,1.473,2.337,2.315l0.014-0.002c0,0-0.079,2.865-0.257,5.572
		c22.725,2.926,40.257,9.026,46.96,16.565c0.011,0.011,0.024,0.021,0.034,0.033c0.408-0.461,0.754-0.929,1.082-1.399
		c0.16-0.232,0.3-0.465,0.44-0.699c0.35-0.581,0.633-1.168,0.853-1.762c0.083-0.223,0.159-0.446,0.222-0.67
		c0.216-0.748,0.364-1.502,0.364-2.267c0-12.072-26.877-22.151-62.793-24.663c-0.178,1.733-0.352,3.428-0.519,5.051
		C1283.153,762.173,1287.166,762.686,1290.445,764.027z"/>
	<path style="fill:#ECA100;" d="M1228.938,729.34c0,0,1.892,6.668-15.834,4.954c-15.906-1.538-22.386-6.18-25.426-10.837
		c-4.05,5.344,1.996,12.3,3.52,14.046c0.498,0.571-5.375,1.955-5.981,1.421c-1.275-1.12-5.885-10.91,0.178-15.961
		c-4.602,3.349-15.195,7.006-28.152,5.6c-17.705-1.921-14.5-8.066-14.5-8.066s-15.323-3.361-15.203-6.927
		c-0.209,1.492-0.876,6.407-0.661,7.057c1.123,3.388,15.189,6.46,15.189,6.46s-3.206,6.145,14.5,8.066
		c12.958,1.406,18.767-0.718,23.37-4.067c-1.872,5.374,2.69,11.619,3.965,12.74c0.607,0.533,13.168-3.562,12.669-4.133
		c-1.524-1.745-4.214-4.77-4.096-7.481c3.04,4.656,4.049,7.134,19.955,8.671c17.726,1.714,15.834-4.954,15.834-4.954
		s15.355,2.042,16.375-3.224c0.279-1.439,0.74-7.218,0.74-7.218s-0.088-0.003-0.105-0.005
		C1245.143,729.161,1228.938,729.34,1228.938,729.34z"/>
	<path style="fill:#ECA100;" d="M1175.85,714.776c-7.882-3.154-17.491-7.679-17.833-11.09l-0.008-0.001c0,0-0.677,2.031-0.753,4.211
		c-0.055,1.557,0.224,3.16,1.286,4.195C1164.671,712.905,1170.774,713.891,1175.85,714.776z"/>
	<path style="fill:#ECA100;" d="M1195.236,716.944c5.933,0.162,13.706,0.474,21.344,1.062c0.267-0.837,0.559-2.354,0.825-3.924
		c0.453-2.675,0.825-5.517,0.825-5.517l-0.013,0C1217.732,712.01,1204.577,715.146,1195.236,716.944z"/>
	<path style="fill:#D18F00;" d="M1259.344,717.217c-1.568-1.272-3.389-2.525-5.437-3.749c-4.098-2.449-9.112-4.783-14.868-6.927
		c-3.837-1.43-8.005-2.775-12.45-4.013c-11.113-3.096-23.962-5.526-37.74-6.939c-33.065-3.393-62.085,0.031-75.13,7.813
		c-4.349,2.594-6.921,5.674-7.278,9.145c-0.078,0.762-0.007,1.527,0.13,2.293c0.04,0.229,0.093,0.458,0.151,0.687
		c0.161,0.616,0.383,1.232,0.673,1.848c0.113,0.242,0.224,0.483,0.357,0.723c0.279,0.505,0.579,1.01,0.939,1.514
		c0.011-0.01,0.027-0.019,0.038-0.03c7.451-6.826,25.565-11.109,48.526-11.688c0.075-2.18,0.753-4.211,0.753-4.211l0.008,0.001
		c-0.112-1.108,0.741-2.1,2.966-2.887c9.865-3.492,26.663,2.216,26.663,2.216s18.44-2.352,28.482,3.009
		c1.604,0.856,2.206,1.707,2.089,2.541l0.013,0c0,0-0.372,2.842-0.825,5.517c22.307,5.231,39.125,13.088,45.024,21.271
		c0.008,0.012,0.022,0.024,0.031,0.036c0.452-0.417,0.844-0.847,1.217-1.281c0.184-0.215,0.347-0.434,0.512-0.654
		c0.406-0.541,0.746-1.096,1.027-1.663c0.105-0.214,0.204-0.429,0.29-0.647c0.29-0.721,0.515-1.455,0.593-2.217l0,0
		c0.266-2.604-0.732-5.245-2.822-7.847C1262.231,719.78,1260.913,718.489,1259.344,717.217z"/>
	<path style="fill:#ECA100;" d="M1272.291,776.913c5.701-0.412,12.793-0.834,19.829-1.013c0.179-0.86,0.314-2.399,0.419-3.988
		c0.178-2.708,0.257-5.572,0.257-5.572l-0.014,0.002c-0.121,3.202-10.951,7.238-19.782,9.998c3.353-3.069,5.386-6.494,5.77-10.234
		c0.128-1.245,0.267-2.601,0.411-4.006c0.167-1.622,0.341-3.318,0.519-5.051c0.202-1.969,0.406-3.968,0.609-5.932
		c0.403-3.937,0.787-7.676,1.09-10.634c0.301-2.932,0.522-5.084,0.596-5.801c0.017-0.172,0.028-0.276,0.028-0.276
		c-0.61,5.953-5.319,11.129-13.073,15.288l-3.245,31.624C1268.229,779.953,1270.453,778.488,1272.291,776.913z"/>
	<path style="fill:#ECA100;" d="M1153.835,820.479V788.61c-2.326,1.294-4.883,2.523-7.648,3.691v31.858c0,0,4.702-2.051,7.315-3.484
		C1153.503,820.675,1153.902,820.443,1153.835,820.479z"/>
	<path style="fill:#ECA100;" d="M1321.53,780.406c0,0-0.088,0.005-0.106,0.006c0.246,3.672-15.855,5.503-15.855,5.503
		s2.561,6.44-15.246,6.544c-15.98,0.093-22.9-3.864-26.4-8.185c-3.484,5.73,3.241,12.033,4.935,13.613
		c0.554,0.517-5.148,2.493-5.806,2.025c-1.382-0.984-6.966-10.253-1.45-15.896c-4.238,3.802-14.401,8.52-27.435,8.444
		c-3.88-0.023-6.749-0.357-8.933-0.849c4.767-0.44,9.262-1.07,13.547-1.819l3.252-31.7c-16.765,2.932-37.479,3.604-59.732,1.321
		c-11.04-1.133-21.528-2.925-31.275-5.18l-3.251,31.7c2.54,0.588,5.133,1.135,7.776,1.654c0.846,0.166,1.676,0.342,2.532,0.501
		v29.789c-0.372,0.251,5.876-4.64,7.514-6.673v-21.858c0.213,0.033,0.423,0.069,0.636,0.101c4.194,0.637,8.447,1.217,12.816,1.666
		c3.318,0.34,6.604,0.616,9.849,0.828c9.656,0.633,18.941,0.704,27.644,0.277c1.428,0.214,2.378,0.322,2.378,0.322
		s-2.561,6.44,15.247,6.544c13.034,0.076,18.597-2.629,22.833-6.43c-1.314,5.537,3.862,11.284,5.245,12.268
		c0.658,0.469,12.735-4.887,12.181-5.404c-1.694-1.581-4.68-4.315-4.839-7.023c3.5,4.321,4.755,6.683,20.736,6.589
		c17.807-0.104,15.246-6.544,15.246-6.544s15.482,0.464,15.961-4.879C1321.661,786.202,1321.53,780.406,1321.53,780.406z"/>
	<path style="fill:#ECA100;" d="M1252.946,786.48c2.973-0.896,5.742-1.881,8.262-2.962l3.252-31.7
		c-2.446,1.049-5.116,2.012-7.984,2.891l-3.252,31.691C1253.133,786.428,1253.036,786.453,1252.946,786.48z"/>
	<path style="fill:#ECA100;" d="M1249.266,787.509l3.25-31.672c-1.686,0.443-3.454,0.844-5.252,1.23l-3.252,31.7
		C1245.824,788.378,1247.567,787.953,1249.266,787.509z"/>
</g>
</svg>
